<svg width="312" height="160" viewBox="0 0 312 160" fill="none" xmlns="http://www.w3.org/2000/svg">
<rect width="312" height="160" rx="4" fill="#F6F8FC"/>
<rect x="168" y="24" width="120" height="112" rx="4" fill="white"/>
<path d="M182.342 35.402V36.35H178.214V39.356H181.742V40.304H178.214V44H177.044V35.402H182.342ZM185.711 37.826C186.155 37.826 186.555 37.9 186.911 38.048C187.271 38.196 187.575 38.406 187.823 38.678C188.075 38.95 188.267 39.28 188.399 39.668C188.535 40.052 188.603 40.482 188.603 40.958C188.603 41.438 188.535 41.87 188.399 42.254C188.267 42.638 188.075 42.966 187.823 43.238C187.575 43.51 187.271 43.72 186.911 43.868C186.555 44.012 186.155 44.084 185.711 44.084C185.267 44.084 184.865 44.012 184.505 43.868C184.149 43.72 183.845 43.51 183.593 43.238C183.341 42.966 183.147 42.638 183.011 42.254C182.875 41.87 182.807 41.438 182.807 40.958C182.807 40.482 182.875 40.052 183.011 39.668C183.147 39.28 183.341 38.95 183.593 38.678C183.845 38.406 184.149 38.196 184.505 38.048C184.865 37.9 185.267 37.826 185.711 37.826ZM185.711 43.25C186.311 43.25 186.759 43.05 187.055 42.65C187.351 42.246 187.499 41.684 187.499 40.964C187.499 40.24 187.351 39.676 187.055 39.272C186.759 38.868 186.311 38.666 185.711 38.666C185.407 38.666 185.143 38.718 184.919 38.822C184.695 38.926 184.507 39.076 184.355 39.272C184.207 39.468 184.095 39.71 184.019 39.998C183.947 40.282 183.911 40.604 183.911 40.964C183.911 41.324 183.947 41.646 184.019 41.93C184.095 42.214 184.207 42.454 184.355 42.65C184.507 42.842 184.695 42.99 184.919 43.094C185.143 43.198 185.407 43.25 185.711 43.25ZM192.379 37.826C192.823 37.826 193.223 37.9 193.579 38.048C193.939 38.196 194.243 38.406 194.491 38.678C194.743 38.95 194.935 39.28 195.067 39.668C195.203 40.052 195.271 40.482 195.271 40.958C195.271 41.438 195.203 41.87 195.067 42.254C194.935 42.638 194.743 42.966 194.491 43.238C194.243 43.51 193.939 43.72 193.579 43.868C193.223 44.012 192.823 44.084 192.379 44.084C191.935 44.084 191.533 44.012 191.173 43.868C190.817 43.72 190.513 43.51 190.261 43.238C190.009 42.966 189.815 42.638 189.679 42.254C189.543 41.87 189.475 41.438 189.475 40.958C189.475 40.482 189.543 40.052 189.679 39.668C189.815 39.28 190.009 38.95 190.261 38.678C190.513 38.406 190.817 38.196 191.173 38.048C191.533 37.9 191.935 37.826 192.379 37.826ZM192.379 43.25C192.979 43.25 193.427 43.05 193.723 42.65C194.019 42.246 194.167 41.684 194.167 40.964C194.167 40.24 194.019 39.676 193.723 39.272C193.427 38.868 192.979 38.666 192.379 38.666C192.075 38.666 191.811 38.718 191.587 38.822C191.363 38.926 191.175 39.076 191.023 39.272C190.875 39.468 190.763 39.71 190.687 39.998C190.615 40.282 190.579 40.604 190.579 40.964C190.579 41.324 190.615 41.646 190.687 41.93C190.763 42.214 190.875 42.454 191.023 42.65C191.175 42.842 191.363 42.99 191.587 43.094C191.811 43.198 192.075 43.25 192.379 43.25ZM198.429 44.096C197.949 44.096 197.579 43.962 197.319 43.694C197.063 43.426 196.935 43.04 196.935 42.536V38.816H196.203C196.139 38.816 196.085 38.798 196.041 38.762C195.997 38.722 195.975 38.662 195.975 38.582V38.156L196.971 38.03L197.217 36.152C197.225 36.092 197.251 36.044 197.295 36.008C197.339 35.968 197.395 35.948 197.463 35.948H198.003V38.042H199.743V38.816H198.003V42.464C198.003 42.72 198.065 42.91 198.189 43.034C198.313 43.158 198.473 43.22 198.669 43.22C198.781 43.22 198.877 43.206 198.957 43.178C199.041 43.146 199.113 43.112 199.173 43.076C199.233 43.04 199.283 43.008 199.323 42.98C199.367 42.948 199.405 42.932 199.437 42.932C199.493 42.932 199.543 42.966 199.587 43.034L199.899 43.544C199.715 43.716 199.493 43.852 199.233 43.952C198.973 44.048 198.705 44.096 198.429 44.096ZM203.47 37.826C203.834 37.826 204.17 37.888 204.478 38.012C204.786 38.132 205.052 38.308 205.276 38.54C205.5 38.768 205.674 39.052 205.798 39.392C205.926 39.728 205.99 40.112 205.99 40.544C205.99 40.712 205.972 40.824 205.936 40.88C205.9 40.936 205.832 40.964 205.732 40.964H201.688C201.696 41.348 201.748 41.682 201.844 41.966C201.94 42.25 202.072 42.488 202.24 42.68C202.408 42.868 202.608 43.01 202.84 43.106C203.072 43.198 203.332 43.244 203.62 43.244C203.888 43.244 204.118 43.214 204.31 43.154C204.506 43.09 204.674 43.022 204.814 42.95C204.954 42.878 205.07 42.812 205.162 42.752C205.258 42.688 205.34 42.656 205.408 42.656C205.496 42.656 205.564 42.69 205.612 42.758L205.912 43.148C205.78 43.308 205.622 43.448 205.438 43.568C205.254 43.684 205.056 43.78 204.844 43.856C204.636 43.932 204.42 43.988 204.196 44.024C203.972 44.064 203.75 44.084 203.53 44.084C203.11 44.084 202.722 44.014 202.366 43.874C202.014 43.73 201.708 43.522 201.448 43.25C201.192 42.974 200.992 42.634 200.848 42.23C200.704 41.826 200.632 41.362 200.632 40.838C200.632 40.414 200.696 40.018 200.824 39.65C200.956 39.282 201.144 38.964 201.388 38.696C201.632 38.424 201.93 38.212 202.282 38.06C202.634 37.904 203.03 37.826 203.47 37.826ZM203.493 38.612C202.978 38.612 202.572 38.762 202.276 39.062C201.98 39.358 201.796 39.77 201.724 40.298H205.03C205.03 40.05 204.996 39.824 204.928 39.62C204.86 39.412 204.76 39.234 204.628 39.086C204.496 38.934 204.334 38.818 204.142 38.738C203.954 38.654 203.738 38.612 203.493 38.612ZM207.356 44V37.922H207.968C208.084 37.922 208.164 37.944 208.208 37.988C208.252 38.032 208.282 38.108 208.298 38.216L208.37 39.164C208.578 38.74 208.834 38.41 209.138 38.174C209.446 37.934 209.806 37.814 210.218 37.814C210.386 37.814 210.538 37.834 210.674 37.874C210.81 37.91 210.936 37.962 211.052 38.03L210.914 38.828C210.886 38.928 210.824 38.978 210.728 38.978C210.672 38.978 210.586 38.96 210.47 38.924C210.354 38.884 210.192 38.864 209.984 38.864C209.612 38.864 209.3 38.972 209.048 39.188C208.8 39.404 208.592 39.718 208.424 40.13V44H207.356Z" fill="#8495B1"/>
<rect x="24" y="24" width="120" height="32" rx="4" fill="white"/>
<rect x="24.75" y="64.75" width="118.5" height="30.5" rx="3.25" stroke="#C0CCE0" stroke-width="1.5" stroke-dasharray="4 2"/>
<rect x="176.75" y="58.75" width="102.5" height="30.5" rx="3.25" stroke="#6285FF" stroke-width="1.5" stroke-dasharray="4 2"/>
<rect x="24" y="104" width="120" height="32" rx="4" fill="white"/>
<g filter="url(#filter0_dd)">
<rect x="99" y="75.0582" width="120" height="32" rx="4" transform="rotate(-15 99 75.0582)" fill="white"/>
</g>
<path d="M115.289 83.8893C115.269 83.9566 115.245 84.0108 115.214 84.0521C115.183 84.0895 115.136 84.1165 115.074 84.133C115.009 84.1506 114.923 84.1385 114.816 84.0966C114.714 84.0537 114.584 84.0118 114.428 83.9707C114.275 83.9248 114.095 83.8943 113.888 83.8794C113.685 83.8634 113.45 83.8911 113.184 83.9625C112.933 84.0298 112.72 84.1241 112.545 84.2454C112.37 84.3629 112.232 84.4972 112.131 84.6483C112.035 84.7984 111.975 84.9614 111.952 85.1374C111.928 85.3096 111.94 85.4864 111.989 85.668C112.051 85.8998 112.158 86.078 112.312 86.2025C112.468 86.3222 112.654 86.4112 112.868 86.4697C113.086 86.5272 113.324 86.5649 113.582 86.5829C113.842 86.596 114.107 86.6119 114.377 86.6306C114.651 86.6483 114.92 86.6797 115.185 86.7247C115.452 86.7649 115.701 86.8412 115.93 86.9538C116.162 87.0654 116.366 87.224 116.542 87.4296C116.721 87.6343 116.856 87.9085 116.948 88.2524C117.046 88.6156 117.076 88.9741 117.038 89.3279C116.999 89.6778 116.892 90.0027 116.715 90.3026C116.543 90.6015 116.301 90.8651 115.989 91.0935C115.681 91.3208 115.307 91.4935 114.867 91.6116C114.33 91.7555 113.813 91.7904 113.317 91.7162C112.824 91.6372 112.376 91.4735 111.974 91.2251L112.156 90.6049C112.176 90.5541 112.203 90.5095 112.238 90.4711C112.276 90.4277 112.322 90.3988 112.376 90.3843C112.458 90.3626 112.562 90.3822 112.69 90.4431C112.817 90.5001 112.972 90.5601 113.155 90.623C113.341 90.6849 113.556 90.7308 113.8 90.7606C114.047 90.7856 114.331 90.7551 114.652 90.6692C114.918 90.5977 115.146 90.4974 115.335 90.368C115.524 90.2387 115.672 90.0892 115.78 89.9196C115.891 89.745 115.96 89.5546 115.987 89.3485C116.015 89.1423 115.998 88.9252 115.937 88.6973C115.87 88.4461 115.757 88.2569 115.599 88.1295C115.443 87.9973 115.258 87.9019 115.044 87.8434C114.829 87.7849 114.592 87.7511 114.333 87.7419C114.077 87.7277 113.813 87.7157 113.541 87.7057C113.272 87.6908 113.004 87.6633 112.736 87.6232C112.472 87.582 112.226 87.5032 111.996 87.3868C111.766 87.2703 111.56 87.104 111.377 86.8878C111.198 86.6666 111.059 86.3726 110.961 86.0055C110.882 85.7119 110.862 85.4129 110.901 85.1085C110.943 84.8031 111.044 84.5152 111.203 84.2447C111.363 83.9743 111.584 83.7328 111.867 83.5204C112.153 83.307 112.503 83.1449 112.916 83.0341C113.38 82.9099 113.823 82.8699 114.245 82.9143C114.667 82.9586 115.058 83.0815 115.418 83.2831L115.289 83.8893ZM119.622 83.8462C119.974 83.7519 120.315 83.7249 120.644 83.7649C120.973 83.8011 121.275 83.9023 121.552 84.0684C121.827 84.2307 122.069 84.4599 122.276 84.7563C122.487 85.0477 122.648 85.402 122.76 85.8193C122.804 85.9816 122.815 86.0944 122.795 86.1578C122.775 86.2213 122.716 86.2659 122.62 86.2918L118.713 87.3384C118.82 87.7073 118.957 88.0165 119.123 88.2659C119.29 88.5154 119.479 88.7111 119.691 88.8531C119.902 88.9912 120.132 89.0766 120.38 89.1093C120.628 89.1381 120.891 89.1153 121.17 89.0407C121.428 88.9714 121.643 88.8828 121.813 88.7752C121.986 88.6627 122.13 88.5535 122.247 88.4477C122.363 88.3419 122.458 88.2482 122.532 88.1664C122.608 88.0797 122.679 88.0276 122.744 88.01C122.829 87.9872 122.904 88.0025 122.968 88.0557L123.359 88.3548C123.273 88.5435 123.156 88.7196 123.009 88.8831C122.862 89.0428 122.695 89.1868 122.51 89.3151C122.329 89.4423 122.135 89.5523 121.928 89.6451C121.722 89.7417 121.513 89.8185 121.3 89.8754C120.894 89.9841 120.501 90.0169 120.121 89.9738C119.744 89.9258 119.395 89.8041 119.073 89.6087C118.754 89.4083 118.473 89.1317 118.23 88.7787C117.986 88.4258 117.796 87.9962 117.661 87.4901C117.551 87.0805 117.51 86.6814 117.539 86.2928C117.571 85.9032 117.67 85.5474 117.837 85.2254C118.002 84.8995 118.235 84.6176 118.535 84.3797C118.835 84.1379 119.197 83.96 119.622 83.8462ZM119.849 84.5992C119.351 84.7327 118.997 84.9827 118.789 85.3491C118.58 85.7116 118.509 86.1572 118.576 86.6858L121.769 85.8302C121.705 85.5906 121.614 85.3811 121.495 85.2017C121.376 85.0184 121.233 84.8723 121.067 84.7635C120.9 84.6509 120.714 84.5807 120.508 84.5532C120.304 84.5207 120.085 84.536 119.849 84.5992ZM126.779 88.4197C126.315 88.544 125.923 88.5103 125.603 88.3187C125.286 88.1261 125.063 87.7864 124.932 87.2996L123.969 83.7063L123.262 83.8958C123.2 83.9124 123.144 83.9089 123.092 83.8856C123.039 83.8583 123.002 83.806 122.981 83.7288L122.871 83.3173L123.801 82.9378L123.552 81.0601C123.544 81.0001 123.557 80.947 123.59 80.9008C123.622 80.8508 123.671 80.817 123.737 80.7994L124.259 80.6596L124.801 82.6823L126.481 82.2319L126.682 82.9796L125.001 83.4299L125.945 86.9536C126.011 87.2009 126.12 87.3684 126.272 87.456C126.424 87.5437 126.595 87.5622 126.784 87.5115C126.892 87.4825 126.981 87.4441 127.051 87.3964C127.124 87.3437 127.185 87.2922 127.234 87.2419C127.282 87.1916 127.322 87.1478 127.354 87.1104C127.388 87.0681 127.42 87.0428 127.451 87.0345C127.505 87.02 127.563 87.0399 127.623 87.0942L128.056 87.5061C127.923 87.7199 127.744 87.9087 127.518 88.0726C127.292 88.2326 127.046 88.3483 126.779 88.4197ZM129.299 87.6451L127.726 81.7742L128.34 81.6096C128.487 81.5703 128.599 81.6169 128.676 81.7495L128.913 82.3321C129.058 82.0075 129.241 81.7245 129.462 81.4831C129.687 81.2406 129.977 81.0717 130.332 80.9765C130.73 80.8699 131.08 80.894 131.383 81.0491C131.689 81.203 131.946 81.4529 132.155 81.7987C132.179 81.5645 132.236 81.3525 132.326 81.1627C132.42 80.9719 132.537 80.8041 132.676 80.6591C132.815 80.5141 132.971 80.3936 133.144 80.2975C133.321 80.2004 133.506 80.126 133.699 80.0742C134.008 79.9914 134.296 79.9681 134.563 80.0044C134.832 80.0358 135.075 80.1239 135.292 80.2687C135.513 80.4125 135.705 80.6115 135.868 80.8659C136.031 81.1164 136.159 81.4194 136.255 81.7749L137.256 85.513L136.225 85.7894L135.223 82.0513C135.1 81.5915 134.906 81.2707 134.642 81.0888C134.377 80.9031 134.053 80.8615 133.671 80.964C133.501 81.0095 133.347 81.0839 133.209 81.1872C133.074 81.2855 132.964 81.4081 132.879 81.5551C132.794 81.7021 132.74 81.8738 132.719 82.0701C132.699 82.2616 132.721 82.4732 132.783 82.7051L133.785 86.4432L132.753 86.7196L131.751 82.9815C131.625 82.5101 131.436 82.1839 131.185 82.0028C130.933 81.8217 130.626 81.7798 130.263 81.8771C130.008 81.9454 129.789 82.0787 129.606 82.2768C129.426 82.47 129.277 82.7087 129.158 82.9931L130.331 87.3687L129.299 87.6451ZM139.597 78.494C140.026 78.3791 140.431 78.3471 140.813 78.3979C141.199 78.4477 141.547 78.5718 141.857 78.7704C142.171 78.9679 142.442 79.237 142.67 79.5776C142.901 79.9133 143.078 80.311 143.201 80.7708C143.325 81.2345 143.371 81.6693 143.339 82.0755C143.311 82.4805 143.211 82.847 143.038 83.175C142.868 83.5019 142.629 83.7834 142.32 84.0196C142.013 84.2508 141.645 84.4239 141.216 84.5388C140.788 84.6537 140.381 84.6882 139.996 84.6423C139.614 84.5915 139.266 84.4673 138.952 84.2698C138.638 84.0723 138.366 83.8057 138.135 83.47C137.904 83.1343 137.727 82.7346 137.602 82.2709C137.479 81.8111 137.434 81.3782 137.466 80.9721C137.496 80.5621 137.598 80.1931 137.771 79.8652C137.944 79.5372 138.184 79.2557 138.489 79.0206C138.799 78.7845 139.168 78.609 139.597 78.494ZM141.001 83.7332C141.58 83.5779 141.961 83.2688 142.144 82.8058C142.325 82.339 142.322 81.7578 142.136 81.0623C141.949 80.363 141.66 79.8565 141.269 79.5429C140.879 79.2293 140.394 79.1501 139.814 79.3054C139.521 79.3841 139.279 79.5027 139.09 79.6611C138.9 79.8195 138.757 80.0131 138.661 80.2417C138.569 80.4694 138.523 80.7321 138.525 81.0299C138.529 81.3229 138.577 81.6433 138.67 81.991C138.763 82.3387 138.882 82.6404 139.025 82.8961C139.172 83.1508 139.342 83.3536 139.536 83.5046C139.732 83.6507 139.952 83.745 140.195 83.7875C140.439 83.83 140.707 83.8119 141.001 83.7332ZM145.259 83.3686L143.686 77.4977L144.277 77.3393C144.389 77.3092 144.472 77.3098 144.526 77.3409C144.58 77.372 144.629 77.4377 144.672 77.5378L144.987 78.4349C145.078 77.9715 145.24 77.5865 145.473 77.2799C145.708 76.9683 146.025 76.7592 146.423 76.6526C146.585 76.6091 146.737 76.5891 146.879 76.5925C147.019 76.5921 147.155 76.6097 147.284 76.6454L147.357 77.4519C147.356 77.5558 147.309 77.6201 147.217 77.6449C147.163 77.6594 147.075 77.6643 146.953 77.6596C146.831 77.6509 146.669 77.6736 146.468 77.7274C146.109 77.8237 145.836 78.0087 145.648 78.2826C145.465 78.5554 145.345 78.9126 145.289 79.354L146.291 83.0921L145.259 83.3686ZM150.66 75.5296C151.012 75.4354 151.353 75.4083 151.682 75.4483C152.011 75.4845 152.313 75.5857 152.59 75.7518C152.865 75.9141 153.107 76.1434 153.314 76.4397C153.525 76.7311 153.686 77.0855 153.798 77.5027C153.841 77.665 153.853 77.7779 153.833 77.8413C153.812 77.9047 153.754 77.9493 153.657 77.9752L149.751 79.0219C149.858 79.3907 149.995 79.6999 150.161 79.9493C150.327 80.1988 150.517 80.3945 150.729 80.5365C150.939 80.6746 151.169 80.76 151.418 80.7927C151.666 80.8215 151.929 80.7987 152.208 80.7241C152.466 80.6548 152.681 80.5663 152.851 80.4586C153.023 80.3461 153.168 80.2369 153.285 80.1311C153.401 80.0253 153.496 79.9316 153.57 79.8498C153.646 79.7631 153.717 79.711 153.782 79.6934C153.867 79.6706 153.942 79.6859 154.006 79.7391L154.397 80.0382C154.31 80.2269 154.194 80.403 154.047 80.5666C153.9 80.7262 153.733 80.8702 153.548 80.9985C153.367 81.1257 153.173 81.2357 152.966 81.3285C152.76 81.4251 152.55 81.5019 152.338 81.5588C151.932 81.6675 151.539 81.7003 151.159 81.6572C150.782 81.6092 150.433 81.4875 150.111 81.2921C149.792 81.0917 149.511 80.8151 149.268 80.4621C149.024 80.1092 148.834 79.6796 148.699 79.1735C148.589 78.7639 148.548 78.3648 148.577 77.9763C148.609 77.5866 148.708 77.2308 148.874 76.9088C149.04 76.5829 149.273 76.301 149.573 76.0631C149.873 75.8213 150.235 75.6435 150.66 75.5296ZM150.887 76.2826C150.389 76.4161 150.035 76.6661 149.827 77.0325C149.618 77.395 149.547 77.8406 149.614 78.3692L152.807 77.5136C152.743 77.274 152.651 77.0645 152.533 76.8851C152.413 76.7018 152.271 76.5557 152.105 76.4469C151.938 76.3343 151.752 76.2642 151.545 76.2366C151.342 76.2041 151.123 76.2194 150.887 76.2826ZM155.264 71.7866L156.197 71.5366C156.297 71.5097 156.387 71.5125 156.466 71.5451C156.545 71.5778 156.607 71.6296 156.651 71.7007L159.913 77.0134C159.972 77.1094 160.029 77.2142 160.084 77.3278C160.143 77.4403 160.202 77.5592 160.26 77.6843C160.252 77.5457 160.246 77.4129 160.241 77.2859C160.235 77.155 160.235 77.0346 160.243 76.9249L160.65 70.6292C160.655 70.5573 160.684 70.4855 160.735 70.4138C160.789 70.3372 160.864 70.286 160.961 70.2601L161.285 70.1731C161.386 70.1462 161.474 70.1496 161.549 70.1832C161.628 70.2159 161.691 70.2672 161.739 70.3372L165.227 75.5894C165.351 75.7716 165.474 75.985 165.598 76.2293C165.587 76.0956 165.575 75.9682 165.564 75.8471C165.552 75.726 165.548 75.6111 165.552 75.5024L165.727 69.2688C165.727 69.1941 165.753 69.1209 165.804 69.0492C165.859 68.9765 165.935 68.9272 166.032 68.9013L166.907 68.6668L166.542 77.666L165.533 77.9362L161.732 72.1653C161.658 72.057 161.582 71.9282 161.504 71.7791C161.506 71.8616 161.507 71.9421 161.507 72.0207C161.51 72.0944 161.51 72.1628 161.506 72.2259L161.088 79.1273L160.08 79.3975L155.264 71.7866ZM169.635 70.5448L171.208 76.4157L170.176 76.6921L168.603 70.8212L169.635 70.5448ZM169.373 68.6397C169.4 68.7402 169.404 68.8405 169.385 68.9408C169.369 69.0361 169.336 69.1279 169.285 69.2161C169.237 69.2994 169.173 69.3722 169.095 69.4347C169.016 69.4971 168.927 69.5418 168.826 69.5687C168.726 69.5956 168.626 69.6017 168.527 69.5869C168.432 69.571 168.34 69.5395 168.253 69.4925C168.169 69.4405 168.096 69.3772 168.035 69.3026C167.972 69.2241 167.927 69.1346 167.901 69.0341C167.874 68.9337 167.868 68.8338 167.882 68.7346C167.896 68.6315 167.927 68.5384 167.975 68.4551C168.026 68.3669 168.089 68.2921 168.164 68.2307C168.242 68.1682 168.332 68.1236 168.432 68.0966C168.532 68.0697 168.632 68.0637 168.732 68.0785C168.831 68.0933 168.923 68.1267 169.007 68.1787C169.094 68.2257 169.169 68.2904 169.233 68.3728C169.299 68.4503 169.346 68.5392 169.373 68.6397ZM177.158 74.8213C177.011 74.8606 176.899 74.814 176.823 74.6814L176.539 73.9934C176.369 74.3659 176.147 74.6884 175.872 74.9608C175.6 75.2283 175.256 75.418 174.838 75.5298C174.502 75.6199 174.18 75.6379 173.872 75.5839C173.562 75.5261 173.277 75.3974 173.017 75.1981C172.756 74.9987 172.523 74.7256 172.319 74.3788C172.114 74.0319 171.946 73.6151 171.816 73.1283C171.7 72.6955 171.65 72.2782 171.667 71.8762C171.682 71.4704 171.761 71.1013 171.904 70.769C172.051 70.4357 172.26 70.1498 172.532 69.9114C172.802 69.6691 173.136 69.4947 173.534 69.388C173.894 69.2918 174.218 69.2713 174.506 69.3266C174.793 69.378 175.066 69.487 175.326 69.6534L174.453 66.3963L175.485 66.1198L177.772 74.6567L177.158 74.8213ZM174.957 74.6036C175.293 74.5136 175.566 74.3576 175.776 74.1358C175.989 73.9129 176.164 73.632 176.301 73.293L175.54 70.4531C175.283 70.2489 175.027 70.127 174.772 70.0877C174.52 70.0434 174.256 70.058 173.982 70.1315C173.433 70.2785 173.065 70.5865 172.876 71.0554C172.686 71.5243 172.689 72.12 172.882 72.8425C172.985 73.225 173.106 73.5447 173.245 73.8014C173.383 74.0542 173.54 74.2525 173.715 74.396C173.889 74.5357 174.079 74.6213 174.287 74.6527C174.494 74.6842 174.717 74.6678 174.957 74.6036ZM179.877 67.6947C180.132 67.6263 180.378 67.5916 180.614 67.5906C180.852 67.5846 181.077 67.6114 181.287 67.6709L182.881 67.2439L182.984 67.6264C183.018 67.7539 182.958 67.8568 182.805 67.935L182.164 68.2063C182.362 68.4223 182.503 68.6848 182.586 68.9939C182.663 69.2798 182.676 69.5556 182.628 69.8213C182.581 70.0822 182.482 70.322 182.33 70.541C182.181 70.7589 181.983 70.9485 181.737 71.1098C181.494 71.2701 181.212 71.3932 180.891 71.4792C180.617 71.5527 180.349 71.5892 180.088 71.5887C179.986 71.6991 179.913 71.8076 179.871 71.914C179.833 72.0195 179.826 72.1147 179.848 72.1997C179.886 72.3388 179.97 72.43 180.102 72.4734C180.233 72.5129 180.395 72.5233 180.589 72.5045C180.782 72.4857 180.998 72.4486 181.236 72.3932C181.474 72.3378 181.717 72.2871 181.965 72.2412C182.217 72.1904 182.466 72.1547 182.713 72.134C182.96 72.1134 183.189 72.1265 183.401 72.1734C183.612 72.2203 183.796 72.3137 183.954 72.4537C184.112 72.5937 184.227 72.7989 184.299 73.0694C184.366 73.3205 184.368 73.581 184.304 73.8509C184.243 74.1197 184.119 74.3765 183.932 74.6212C183.746 74.8698 183.498 75.0938 183.187 75.293C182.877 75.4962 182.507 75.6552 182.079 75.7701C181.65 75.8851 181.262 75.9435 180.914 75.9455C180.571 75.9464 180.274 75.9038 180.023 75.8178C179.772 75.7318 179.567 75.6086 179.408 75.4483C179.254 75.2908 179.15 75.1097 179.095 74.9049C179.017 74.6151 179.042 74.3454 179.17 74.0959C179.301 73.8414 179.51 73.6113 179.799 73.4056C179.612 73.3728 179.451 73.3062 179.317 73.2056C179.185 73.1001 179.09 72.9392 179.032 72.7228C179.009 72.6378 179.001 72.5467 179.008 72.4496C179.015 72.3486 179.037 72.2454 179.075 72.1399C179.116 72.0335 179.173 71.9272 179.244 71.8212C179.315 71.7153 179.404 71.6148 179.511 71.5198C179.178 71.4352 178.892 71.2819 178.655 71.0598C178.42 70.8328 178.254 70.5397 178.158 70.1803C178.082 69.8944 178.066 69.6211 178.112 69.3602C178.161 69.0945 178.262 68.8541 178.416 68.6391C178.569 68.4201 178.768 68.23 179.015 68.0687C179.265 67.9063 179.553 67.7816 179.877 67.6947ZM183.394 73.4921C183.354 73.3453 183.282 73.2383 183.177 73.1712C183.072 73.1041 182.944 73.066 182.793 73.0569C182.64 73.0439 182.47 73.0502 182.282 73.0756C182.094 73.1011 181.899 73.1369 181.696 73.183C181.492 73.2253 181.284 73.2685 181.072 73.3129C180.86 73.3572 180.656 73.3892 180.458 73.4091C180.266 73.5724 180.12 73.748 180.022 73.936C179.927 74.1229 179.907 74.3207 179.963 74.5293C179.998 74.6607 180.064 74.7736 180.16 74.868C180.26 74.9653 180.391 75.0359 180.552 75.0798C180.714 75.1275 180.905 75.1466 181.126 75.137C181.352 75.1303 181.608 75.0887 181.894 75.0121C182.172 74.9375 182.415 74.8456 182.621 74.7364C182.828 74.6272 182.995 74.506 183.12 74.3729C183.25 74.2387 183.338 74.097 183.385 73.9478C183.432 73.7986 183.435 73.6467 183.394 73.4921ZM180.708 70.7953C180.917 70.7394 181.093 70.6612 181.236 70.5608C181.382 70.4594 181.496 70.342 181.576 70.2087C181.656 70.0754 181.704 69.93 181.72 69.7726C181.735 69.6113 181.719 69.4437 181.672 69.2698C181.576 68.9105 181.389 68.6541 181.112 68.5006C180.839 68.346 180.493 68.3247 180.076 68.4365C179.663 68.5473 179.374 68.7384 179.211 69.0099C179.052 69.2804 179.02 69.5953 179.116 69.9546C179.163 70.1285 179.233 70.2816 179.326 70.4139C179.423 70.5413 179.539 70.6427 179.675 70.7181C179.811 70.7934 179.966 70.8388 180.14 70.8543C180.314 70.8698 180.503 70.8502 180.708 70.7953ZM186.147 66.021C186.498 65.9268 186.839 65.8997 187.169 65.9398C187.497 65.976 187.8 66.0771 188.076 66.2432C188.351 66.4055 188.593 66.6348 188.801 66.9311C189.011 67.2225 189.173 67.5769 189.284 67.9942C189.328 68.1564 189.339 68.2693 189.319 68.3327C189.299 68.3961 189.24 68.4407 189.144 68.4666L185.238 69.5133C185.345 69.8821 185.481 70.1913 185.648 70.4408C185.814 70.6903 186.003 70.886 186.215 71.028C186.426 71.1661 186.656 71.2515 186.905 71.2841C187.153 71.313 187.416 71.2901 187.694 71.2156C187.953 71.1462 188.167 71.0577 188.337 70.9501C188.51 70.8375 188.655 70.7283 188.771 70.6226C188.888 70.5168 188.983 70.423 189.056 70.3412C189.132 70.2546 189.203 70.2024 189.269 70.1848C189.354 70.1621 189.428 70.1773 189.492 70.2306L189.883 70.5296C189.797 70.7183 189.681 70.8945 189.534 71.058C189.386 71.2177 189.22 71.3616 189.035 71.4899C188.853 71.6172 188.659 71.7272 188.452 71.8199C188.246 71.9165 188.037 71.9933 187.824 72.0502C187.419 72.1589 187.026 72.1918 186.646 72.1487C186.268 72.1007 185.919 71.979 185.598 71.7835C185.279 71.5832 184.998 71.3065 184.754 70.9536C184.51 70.6006 184.321 70.171 184.185 69.6649C184.075 69.2553 184.035 68.8563 184.063 68.4677C184.095 68.0781 184.195 67.7222 184.361 67.4002C184.526 67.0743 184.759 66.7924 185.06 66.5545C185.359 66.3127 185.722 66.1349 186.147 66.021ZM186.373 66.774C185.875 66.9076 185.522 67.1575 185.313 67.5239C185.104 67.8864 185.033 68.332 185.1 68.8607L188.293 68.005C188.229 67.7655 188.138 67.556 188.019 67.3765C187.9 67.1932 187.757 67.0472 187.591 66.9384C187.425 66.8257 187.238 66.7556 187.032 66.728C186.829 66.6955 186.609 66.7109 186.373 66.774ZM193.303 70.5946C192.84 70.7188 192.448 70.6852 192.127 70.4936C191.81 70.301 191.587 69.9613 191.456 69.4744L190.494 65.8812L189.787 66.0706C189.725 66.0872 189.668 66.0838 189.616 66.0604C189.563 66.0332 189.527 65.9809 189.506 65.9036L189.396 65.4921L190.325 65.1126L190.077 63.235C190.069 63.1749 190.081 63.1218 190.115 63.0757C190.147 63.0257 190.196 62.9918 190.261 62.9742L190.783 62.8345L191.325 64.8571L193.006 64.4068L193.206 65.1544L191.525 65.6048L192.469 69.1285C192.536 69.3757 192.645 69.5432 192.797 69.6309C192.949 69.7186 193.119 69.7371 193.308 69.6863C193.417 69.6573 193.506 69.619 193.576 69.5712C193.649 69.5186 193.709 69.4671 193.758 69.4168C193.807 69.3665 193.847 69.3226 193.878 69.2852C193.912 69.2429 193.945 69.2176 193.976 69.2094C194.03 69.1949 194.087 69.2148 194.147 69.2691L194.58 69.6809C194.447 69.8947 194.268 70.0835 194.043 70.2474C193.816 70.4074 193.57 70.5232 193.303 70.5946Z" fill="#3B4C66"/>
<path fill-rule="evenodd" clip-rule="evenodd" d="M182.497 79.5903V89.2061H180.869V87.6238H177.587V89.2054H176V92.3798H177.666V93.9585H179.292V97.1763H180.901V98.7944H182.5V100.356H184.13V103.564H193.864V102.016H195.507V103.581H198.718V98.8007H200.335V95.5827H202.019V87.6072H200.304V86.0324H197.079V84.4306H188.995V79.6074H187.354V78H184.105V79.5892L182.497 79.5903Z" fill="black"/>
<path fill-rule="evenodd" clip-rule="evenodd" d="M187.375 79.5778V89.1689H188.982V85.967H193.881V89.1776H195.489V86.0042H197.085V89.1737H198.72V87.5766H200.345V95.5794H198.702V98.8063H197.11V92.4116H195.477V98.7806H197.084V102.018H195.5V100.404H193.873V102.007H185.739V100.399H184.12V98.7933H182.503V97.2199H180.881V94.0102H179.231V92.3852H177.622V89.1869H180.866V90.754H182.532V93.9451H184.115L184.126 79.5778H187.375ZM193.841 92.3956H192.218V98.7956H193.841V92.3956ZM190.595 92.3956H188.972V98.7956H190.595V92.3956Z" fill="white"/>
<defs>
<filter id="filter0_dd" x="67.8979" y="26.8979" width="186.397" height="124.172" filterUnits="userSpaceOnUse" color-interpolation-filters="sRGB">
<feFlood flood-opacity="0" result="BackgroundImageFix"/>
<feColorMatrix in="SourceAlpha" type="matrix" values="0 0 0 0 0 0 0 0 0 0 0 0 0 0 0 0 0 0 127 0"/>
<feOffset dy="14"/>
<feGaussianBlur stdDeviation="16"/>
<feColorMatrix type="matrix" values="0 0 0 0 0.0862745 0 0 0 0 0.176471 0 0 0 0 0.239216 0 0 0 0.08 0"/>
<feBlend mode="normal" in2="BackgroundImageFix" result="effect1_dropShadow"/>
<feColorMatrix in="SourceAlpha" type="matrix" values="0 0 0 0 0 0 0 0 0 0 0 0 0 0 0 0 0 0 127 0"/>
<feOffset dy="1"/>
<feGaussianBlur stdDeviation="2"/>
<feColorMatrix type="matrix" values="0 0 0 0 0.0862745 0 0 0 0 0.176471 0 0 0 0 0.239216 0 0 0 0.1 0"/>
<feBlend mode="normal" in2="effect1_dropShadow" result="effect2_dropShadow"/>
<feBlend mode="normal" in="SourceGraphic" in2="effect2_dropShadow" result="shape"/>
</filter>
</defs>
</svg>
