<svg xmlns="http://www.w3.org/2000/svg" width="156" height="24"><g fill="none" fill-rule="evenodd"><g fill="#1D90F5"><path d="M7 17a1 1 0 011 1v5a1 1 0 01-1 1H1a1 1 0 01-1-1v-5a1 1 0 011-1h6zm10-8a1 1 0 011 1v13a1 1 0 01-1 1h-6a1 1 0 01-1-1V10a1 1 0 011-1h6zm10 4a1 1 0 011 1v9a1 1 0 01-1 1h-6a1 1 0 01-1-1v-9a1 1 0 011-1h6zm0-13a1 1 0 011 1v9a1 1 0 01-1 1h-6a1 1 0 01-1-1V1a1 1 0 011-1h6z"/><path d="M7 0a1 1 0 011 1v13a1 1 0 01-1 1H1a1 1 0 01-1-1V1a1 1 0 011-1h6zm10 0a1 1 0 011 1v5a1 1 0 01-1 1h-6a1 1 0 01-1-1V1a1 1 0 011-1h6z" opacity=".25"/></g><path fill="#142640" d="M46.74 1.943c2.466 0 4.62.849 6.348 2.776l-2.72 2.806c-.964-1.163-2.211-1.73-3.6-1.73-1.388 0-2.691.596-2.691 1.786 0 1.219.99 1.757 3.117 2.523l1.615.594c2.947 1.078 4.789 2.948 4.789 5.98-.028 3.599-2.89 6.064-7.056 6.064-3.202 0-5.894-1.388-7.34-3.598l3.146-2.636c.992 1.502 2.72 2.38 4.364 2.38 1.615 0 2.692-.793 2.692-1.955 0-1.134-.822-1.927-2.806-2.607l-1.7-.595c-3.23-1.134-4.96-3.004-4.96-5.753 0-3.797 2.892-6.035 6.803-6.035zm73.257 4.063c4.64 0 8.417 3.68 8.417 8.351 0 4.673-3.777 8.353-8.417 8.353s-8.416-3.68-8.416-8.353c0-4.672 3.776-8.35 8.416-8.35zm-56.512 0c4.192 0 7.872 2.687 7.872 7.872 0 .383 0 .832-.064 1.504H59.325c.256 2.144 2.144 3.328 4.256 3.328 1.724 0 3.037-.7 3.814-1.599l3.34 2.344c-1.506 1.961-4.001 3.255-7.186 3.255-4.768 0-8.48-3.296-8.48-8.353 0-4.735 3.552-8.35 8.416-8.35zm83.98 0c4.192 0 7.872 2.687 7.872 7.872 0 .383 0 .832-.064 1.504h-11.968c.256 2.144 2.144 3.328 4.256 3.328 1.724 0 3.037-.7 3.814-1.599l3.34 2.344c-1.506 1.961-4 3.255-7.186 3.255-4.768 0-8.48-3.296-8.48-8.353 0-4.735 3.552-8.35 8.416-8.35zm-67.98-3.628v3.98h3.712v3.84h-3.712v8.32h3.712v3.84H78.3a3.2 3.2 0 01-3.2-3.2v-8.96h-3.104v-3.84H75.1v-3.98h4.384zm24.361 3.627c3.786 0 5.75 2.752 5.75 7.073v9.28h-4.358v-8.545c0-2.368-.664-3.808-2.382-3.808-1.875 0-3.081 1.472-3.081 4.544v7.81h-4.358v-8.546c0-2.368-.664-3.808-2.381-3.808-1.877 0-3.082 1.472-3.082 4.544v7.81h-4.357V6.356h4.357V8.18c.86-1.248 2.29-2.176 4.23-2.176 2.323 0 3.778 1.088 4.732 2.944.986-1.984 3.118-2.944 4.93-2.944zm34.547.352v3.84h-3.612v12.161h-4.384v-12.8a3.2 3.2 0 013.2-3.2h4.796zm-18.396 3.744c-2.304 0-4 1.792-4 4.256 0 2.465 1.696 4.257 4 4.257 2.304 0 3.968-1.792 3.968-4.257 0-2.464-1.664-4.256-3.968-4.256zm-56.64-.479c-1.632 0-3.456.832-3.872 2.784h7.488c-.384-1.889-1.984-2.784-3.616-2.784zm83.98 0c-1.632 0-3.456.832-3.872 2.784h7.488c-.384-1.889-1.984-2.784-3.616-2.784z"/></g></svg>