<svg width="312" height="160" viewBox="0 0 312 160" fill="none" xmlns="http://www.w3.org/2000/svg">
<rect width="312" height="160" rx="4" fill="#F6F8FC"/>
<path d="M88.3636 94.3636V72.5455H96V74.5091H90.5455V92.6618H96V94.3636H88.3636ZM107.092 90.2182C105.987 90.2182 104.918 90.0582 103.885 89.7382C102.852 89.4036 101.899 88.8945 101.027 88.2109L102.009 86.4873C102.721 87.0691 103.514 87.5127 104.387 87.8182C105.274 88.1091 106.176 88.2545 107.092 88.2545C107.849 88.2545 108.569 88.1382 109.252 87.9055C109.95 87.6727 110.299 87.1782 110.299 86.4218C110.299 85.7964 110.016 85.3527 109.449 85.0909C108.881 84.8291 107.841 84.6036 106.329 84.4145C104.729 84.2255 103.514 83.8545 102.685 83.3018C101.87 82.7345 101.463 81.8473 101.463 80.64C101.463 79.3309 101.958 78.3491 102.947 77.6945C103.936 77.0255 105.085 76.6909 106.394 76.6909C107.427 76.6909 108.416 76.8655 109.361 77.2145C110.321 77.5636 111.209 78.0582 112.023 78.6982L111.041 80.4218C110.372 79.8836 109.645 79.4545 108.859 79.1345C108.074 78.8145 107.252 78.6545 106.394 78.6545C105.696 78.6545 105.056 78.7855 104.474 79.0473C103.907 79.3091 103.623 79.7891 103.623 80.4873C103.623 81.0836 103.885 81.52 104.409 81.7964C104.947 82.0582 105.972 82.2836 107.485 82.4727C109.143 82.6618 110.387 83.0691 111.216 83.6945C112.045 84.3055 112.459 85.1636 112.459 86.2691C112.459 87.6364 111.907 88.64 110.801 89.28C109.696 89.9055 108.459 90.2182 107.092 90.2182ZM127.697 87.12C127.304 88.2109 126.708 89.0036 125.908 89.4982C125.108 89.9782 123.879 90.2182 122.221 90.2182C120.49 90.2182 119.144 89.8036 118.184 88.9745C117.224 88.1309 116.744 86.8873 116.744 85.2436V81.7309C116.744 80.0436 117.246 78.7855 118.25 77.9564C119.268 77.1127 120.592 76.6909 122.221 76.6909C123.864 76.6909 125.181 77.12 126.17 77.9782C127.159 78.8218 127.653 80.1236 127.653 81.8836V83.8909H118.926V85.2655C118.926 86.3564 119.195 87.1491 119.733 87.6436C120.286 88.1236 121.108 88.3636 122.199 88.3636C123.246 88.3636 124.01 88.2182 124.49 87.9273C124.97 87.6364 125.333 87.1636 125.581 86.5091L127.697 87.12ZM118.926 81.7309V82.2545H125.472V81.9273C125.472 80.7491 125.195 79.8909 124.643 79.3527C124.104 78.8145 123.29 78.5455 122.199 78.5455C121.108 78.5455 120.286 78.8073 119.733 79.3309C119.195 79.84 118.926 80.64 118.926 81.7309ZM139.64 90.1964C138.2 90.1964 137.08 89.84 136.28 89.1273C135.48 88.4145 135.08 87.3236 135.08 85.8545V78.8727H131.371V76.9091H135.08V72.5455H137.262V76.9091H142.935V78.8727H137.262V85.6582C137.262 86.5018 137.473 87.1273 137.895 87.5345C138.316 87.9418 138.942 88.1455 139.771 88.1455C140.324 88.1455 140.84 88.1091 141.32 88.0364C141.8 87.9491 142.258 87.84 142.695 87.7091L143.131 89.6945C142.636 89.84 142.106 89.9564 141.538 90.0436C140.986 90.1455 140.353 90.1964 139.64 90.1964ZM148.441 80.6182V90H146.434V76.9091H148.441V78.6545H148.878C149.154 78.0436 149.518 77.5636 149.969 77.2145C150.42 76.8655 150.892 76.6909 151.387 76.6909C151.954 76.6909 152.427 76.8655 152.805 77.2145C153.198 77.5491 153.467 78.0291 153.612 78.6545H154.092C154.369 78.0436 154.74 77.5636 155.205 77.2145C155.685 76.8655 156.194 76.6909 156.732 76.6909C157.46 76.6909 158.034 76.9891 158.456 77.5855C158.878 78.1673 159.089 78.96 159.089 79.9636V90H157.081V80.3127C157.081 79.6582 156.994 79.1636 156.82 78.8291C156.645 78.4945 156.39 78.3273 156.056 78.3273C155.78 78.3273 155.43 78.5309 155.009 78.9382C154.601 79.3455 154.187 79.9055 153.765 80.6182V90H151.758V80.3127C151.758 79.6582 151.663 79.1636 151.474 78.8291C151.3 78.4945 151.045 78.3273 150.71 78.3273C150.42 78.3273 150.078 78.5236 149.685 78.9164C149.307 79.3091 148.892 79.8764 148.441 80.6182ZM168.043 90.2182C166.283 90.2182 164.93 89.7964 163.984 88.9527C163.054 88.0945 162.588 86.8655 162.588 85.2655V81.7309C162.588 80.1164 163.061 78.8727 164.006 78C164.952 77.1273 166.304 76.6909 168.064 76.6909C169.81 76.6909 171.148 77.1273 172.079 78C173.024 78.8727 173.497 80.1164 173.497 81.7309V85.2655C173.497 86.8655 173.024 88.0945 172.079 88.9527C171.148 89.7964 169.803 90.2182 168.043 90.2182ZM168.043 88.2545C169.148 88.2545 169.97 88.0073 170.508 87.5127C171.046 87.0182 171.315 86.2691 171.315 85.2655V81.7309C171.315 80.6836 171.046 79.9127 170.508 79.4182C169.97 78.9091 169.148 78.6545 168.043 78.6545C166.937 78.6545 166.115 78.9091 165.577 79.4182C165.039 79.9127 164.77 80.6836 164.77 81.7309V85.2655C164.77 86.2691 165.039 87.0182 165.577 87.5127C166.115 88.0073 166.937 88.2545 168.043 88.2545ZM178.96 90V76.9091H181.142V79.0909H181.797C182.102 78.2618 182.568 77.6582 183.193 77.28C183.818 76.8873 184.575 76.6909 185.462 76.6909C186.437 76.6909 187.251 77.0182 187.906 77.6727C188.56 78.3127 188.888 79.2218 188.888 80.4V82.3636H186.815V81.1855C186.815 80.3564 186.626 79.7455 186.247 79.3527C185.884 78.96 185.324 78.7636 184.568 78.7636C183.884 78.7636 183.258 78.9309 182.691 79.2655C182.138 79.6 181.622 80.1236 181.142 80.8364V90H178.96ZM204.103 87.12C203.711 88.2109 203.114 89.0036 202.314 89.4982C201.514 89.9782 200.285 90.2182 198.627 90.2182C196.896 90.2182 195.551 89.8036 194.591 88.9745C193.631 88.1309 193.151 86.8873 193.151 85.2436V81.7309C193.151 80.0436 193.652 78.7855 194.656 77.9564C195.674 77.1127 196.998 76.6909 198.627 76.6909C200.271 76.6909 201.587 77.12 202.576 77.9782C203.565 78.8218 204.06 80.1236 204.06 81.8836V83.8909H195.332V85.2655C195.332 86.3564 195.601 87.1491 196.14 87.6436C196.692 88.1236 197.514 88.3636 198.605 88.3636C199.652 88.3636 200.416 88.2182 200.896 87.9273C201.376 87.6364 201.74 87.1636 201.987 86.5091L204.103 87.12ZM195.332 81.7309V82.2545H201.878V81.9273C201.878 80.7491 201.601 79.8909 201.049 79.3527C200.511 78.8145 199.696 78.5455 198.605 78.5455C197.514 78.5455 196.692 78.8073 196.14 79.3309C195.601 79.84 195.332 80.64 195.332 81.7309ZM209.523 94.3636V92.6618H214.977V74.5091H209.523V72.5455H217.159V94.3636H209.523Z" fill="#556784"/>
<rect x="226" y="58" width="2" height="48" fill="#6285FF"/>
</svg>
