<svg width="312" height="160" viewBox="0 0 312 160" fill="none" xmlns="http://www.w3.org/2000/svg">
<g clip-path="url(#clip0)">
<rect width="312" height="160" rx="4" fill="#F6F8FC"/>
<rect x="100" y="18" width="112" height="124" rx="4" fill="white"/>
<g filter="url(#filter0_d)">
<rect x="92" y="18" width="128" height="32" rx="4" fill="white"/>
</g>
<path d="M113.448 30.746C113.412 30.806 113.374 30.852 113.334 30.884C113.294 30.912 113.242 30.926 113.178 30.926C113.11 30.926 113.03 30.892 112.938 30.824C112.85 30.756 112.736 30.682 112.596 30.602C112.46 30.518 112.294 30.442 112.098 30.374C111.906 30.306 111.672 30.272 111.396 30.272C111.136 30.272 110.906 30.308 110.706 30.38C110.506 30.448 110.338 30.542 110.202 30.662C110.07 30.782 109.97 30.924 109.902 31.088C109.834 31.248 109.8 31.422 109.8 31.61C109.8 31.85 109.858 32.05 109.974 32.21C110.094 32.366 110.25 32.5 110.442 32.612C110.638 32.724 110.858 32.822 111.102 32.906C111.35 32.986 111.602 33.07 111.858 33.158C112.118 33.246 112.37 33.346 112.614 33.458C112.862 33.566 113.082 33.704 113.274 33.872C113.47 34.04 113.626 34.246 113.742 34.49C113.862 34.734 113.922 35.034 113.922 35.39C113.922 35.766 113.858 36.12 113.73 36.452C113.602 36.78 113.414 37.066 113.166 37.31C112.922 37.554 112.62 37.746 112.26 37.886C111.904 38.026 111.498 38.096 111.042 38.096C110.486 38.096 109.978 37.996 109.518 37.796C109.062 37.592 108.672 37.318 108.348 36.974L108.684 36.422C108.716 36.378 108.754 36.342 108.798 36.314C108.846 36.282 108.898 36.266 108.954 36.266C109.038 36.266 109.134 36.312 109.242 36.404C109.35 36.492 109.484 36.59 109.644 36.698C109.808 36.806 110.004 36.906 110.232 36.998C110.464 37.086 110.746 37.13 111.078 37.13C111.354 37.13 111.6 37.092 111.816 37.016C112.032 36.94 112.214 36.834 112.362 36.698C112.514 36.558 112.63 36.392 112.71 36.2C112.79 36.008 112.83 35.794 112.83 35.558C112.83 35.298 112.77 35.086 112.65 34.922C112.534 34.754 112.38 34.614 112.188 34.502C111.996 34.39 111.776 34.296 111.528 34.22C111.284 34.14 111.032 34.06 110.772 33.98C110.516 33.896 110.264 33.8 110.016 33.692C109.772 33.584 109.554 33.444 109.362 33.272C109.17 33.1 109.014 32.886 108.894 32.63C108.778 32.37 108.72 32.05 108.72 31.67C108.72 31.366 108.778 31.072 108.894 30.788C109.014 30.504 109.186 30.252 109.41 30.032C109.634 29.812 109.91 29.636 110.238 29.504C110.57 29.372 110.95 29.306 111.378 29.306C111.858 29.306 112.296 29.382 112.692 29.534C113.088 29.686 113.434 29.906 113.73 30.194L113.448 30.746ZM117.645 31.826C118.009 31.826 118.345 31.888 118.653 32.012C118.961 32.132 119.227 32.308 119.451 32.54C119.675 32.768 119.849 33.052 119.973 33.392C120.101 33.728 120.165 34.112 120.165 34.544C120.165 34.712 120.147 34.824 120.111 34.88C120.075 34.936 120.007 34.964 119.907 34.964H115.863C115.871 35.348 115.923 35.682 116.019 35.966C116.115 36.25 116.247 36.488 116.415 36.68C116.583 36.868 116.783 37.01 117.015 37.106C117.247 37.198 117.507 37.244 117.795 37.244C118.063 37.244 118.293 37.214 118.485 37.154C118.681 37.09 118.849 37.022 118.989 36.95C119.129 36.878 119.245 36.812 119.337 36.752C119.433 36.688 119.515 36.656 119.583 36.656C119.671 36.656 119.739 36.69 119.787 36.758L120.087 37.148C119.955 37.308 119.797 37.448 119.613 37.568C119.429 37.684 119.231 37.78 119.019 37.856C118.811 37.932 118.595 37.988 118.371 38.024C118.147 38.064 117.925 38.084 117.705 38.084C117.285 38.084 116.897 38.014 116.541 37.874C116.189 37.73 115.883 37.522 115.623 37.25C115.367 36.974 115.167 36.634 115.023 36.23C114.879 35.826 114.807 35.362 114.807 34.838C114.807 34.414 114.871 34.018 114.999 33.65C115.131 33.282 115.319 32.964 115.563 32.696C115.807 32.424 116.105 32.212 116.457 32.06C116.809 31.904 117.205 31.826 117.645 31.826ZM117.669 32.612C117.153 32.612 116.747 32.762 116.451 33.062C116.155 33.358 115.971 33.77 115.899 34.298H119.205C119.205 34.05 119.171 33.824 119.103 33.62C119.035 33.412 118.935 33.234 118.803 33.086C118.671 32.934 118.509 32.818 118.317 32.738C118.129 32.654 117.913 32.612 117.669 32.612ZM123.374 38.096C122.894 38.096 122.524 37.962 122.264 37.694C122.008 37.426 121.88 37.04 121.88 36.536V32.816H121.148C121.084 32.816 121.03 32.798 120.986 32.762C120.942 32.722 120.92 32.662 120.92 32.582V32.156L121.916 32.03L122.162 30.152C122.17 30.092 122.196 30.044 122.24 30.008C122.284 29.968 122.34 29.948 122.408 29.948H122.948V32.042H124.688V32.816H122.948V36.464C122.948 36.72 123.01 36.91 123.134 37.034C123.258 37.158 123.418 37.22 123.614 37.22C123.726 37.22 123.822 37.206 123.902 37.178C123.986 37.146 124.058 37.112 124.118 37.076C124.178 37.04 124.228 37.008 124.268 36.98C124.312 36.948 124.35 36.932 124.382 36.932C124.438 36.932 124.488 36.966 124.532 37.034L124.844 37.544C124.66 37.716 124.438 37.852 124.178 37.952C123.918 38.048 123.65 38.096 123.374 38.096ZM126.009 38V31.922H126.645C126.797 31.922 126.893 31.996 126.933 32.144L127.011 32.768C127.235 32.492 127.485 32.266 127.761 32.09C128.041 31.914 128.365 31.826 128.733 31.826C129.145 31.826 129.477 31.94 129.729 32.168C129.985 32.396 130.169 32.704 130.281 33.092C130.365 32.872 130.475 32.682 130.611 32.522C130.751 32.362 130.907 32.23 131.079 32.126C131.251 32.022 131.433 31.946 131.625 31.898C131.821 31.85 132.019 31.826 132.219 31.826C132.539 31.826 132.823 31.878 133.071 31.982C133.323 32.082 133.535 32.23 133.707 32.426C133.883 32.622 134.017 32.864 134.109 33.152C134.201 33.436 134.247 33.762 134.247 34.13V38H133.179V34.13C133.179 33.654 133.075 33.294 132.867 33.05C132.659 32.802 132.357 32.678 131.961 32.678C131.785 32.678 131.617 32.71 131.457 32.774C131.301 32.834 131.163 32.924 131.043 33.044C130.923 33.164 130.827 33.316 130.755 33.5C130.687 33.68 130.653 33.89 130.653 34.13V38H129.585V34.13C129.585 33.642 129.487 33.278 129.291 33.038C129.095 32.798 128.809 32.678 128.433 32.678C128.169 32.678 127.923 32.75 127.695 32.894C127.471 33.034 127.265 33.226 127.077 33.47V38H126.009ZM138.324 31.826C138.768 31.826 139.168 31.9 139.524 32.048C139.884 32.196 140.188 32.406 140.436 32.678C140.688 32.95 140.88 33.28 141.012 33.668C141.148 34.052 141.216 34.482 141.216 34.958C141.216 35.438 141.148 35.87 141.012 36.254C140.88 36.638 140.688 36.966 140.436 37.238C140.188 37.51 139.884 37.72 139.524 37.868C139.168 38.012 138.768 38.084 138.324 38.084C137.88 38.084 137.478 38.012 137.118 37.868C136.762 37.72 136.458 37.51 136.206 37.238C135.954 36.966 135.76 36.638 135.624 36.254C135.488 35.87 135.42 35.438 135.42 34.958C135.42 34.482 135.488 34.052 135.624 33.668C135.76 33.28 135.954 32.95 136.206 32.678C136.458 32.406 136.762 32.196 137.118 32.048C137.478 31.9 137.88 31.826 138.324 31.826ZM138.324 37.25C138.924 37.25 139.372 37.05 139.668 36.65C139.964 36.246 140.112 35.684 140.112 34.964C140.112 34.24 139.964 33.676 139.668 33.272C139.372 32.868 138.924 32.666 138.324 32.666C138.02 32.666 137.756 32.718 137.532 32.822C137.308 32.926 137.12 33.076 136.968 33.272C136.82 33.468 136.708 33.71 136.632 33.998C136.56 34.282 136.524 34.604 136.524 34.964C136.524 35.324 136.56 35.646 136.632 35.93C136.708 36.214 136.82 36.454 136.968 36.65C137.12 36.842 137.308 36.99 137.532 37.094C137.756 37.198 138.02 37.25 138.324 37.25ZM142.532 38V31.922H143.144C143.26 31.922 143.34 31.944 143.384 31.988C143.428 32.032 143.458 32.108 143.474 32.216L143.546 33.164C143.754 32.74 144.01 32.41 144.314 32.174C144.622 31.934 144.982 31.814 145.394 31.814C145.562 31.814 145.714 31.834 145.85 31.874C145.986 31.91 146.112 31.962 146.228 32.03L146.09 32.828C146.062 32.928 146 32.978 145.904 32.978C145.848 32.978 145.762 32.96 145.646 32.924C145.53 32.884 145.368 32.864 145.16 32.864C144.788 32.864 144.476 32.972 144.224 33.188C143.976 33.404 143.768 33.718 143.6 34.13V38H142.532ZM149.778 31.826C150.142 31.826 150.478 31.888 150.786 32.012C151.094 32.132 151.36 32.308 151.584 32.54C151.808 32.768 151.982 33.052 152.106 33.392C152.234 33.728 152.298 34.112 152.298 34.544C152.298 34.712 152.28 34.824 152.244 34.88C152.208 34.936 152.14 34.964 152.04 34.964H147.996C148.004 35.348 148.056 35.682 148.152 35.966C148.248 36.25 148.38 36.488 148.548 36.68C148.716 36.868 148.916 37.01 149.148 37.106C149.38 37.198 149.64 37.244 149.928 37.244C150.196 37.244 150.426 37.214 150.618 37.154C150.814 37.09 150.982 37.022 151.122 36.95C151.262 36.878 151.378 36.812 151.47 36.752C151.566 36.688 151.648 36.656 151.716 36.656C151.804 36.656 151.872 36.69 151.92 36.758L152.22 37.148C152.088 37.308 151.93 37.448 151.746 37.568C151.562 37.684 151.364 37.78 151.152 37.856C150.944 37.932 150.728 37.988 150.504 38.024C150.28 38.064 150.058 38.084 149.838 38.084C149.418 38.084 149.03 38.014 148.674 37.874C148.322 37.73 148.016 37.522 147.756 37.25C147.5 36.974 147.3 36.634 147.156 36.23C147.012 35.826 146.94 35.362 146.94 34.838C146.94 34.414 147.004 34.018 147.132 33.65C147.264 33.282 147.452 32.964 147.696 32.696C147.94 32.424 148.238 32.212 148.59 32.06C148.942 31.904 149.338 31.826 149.778 31.826ZM149.802 32.612C149.286 32.612 148.88 32.762 148.584 33.062C148.288 33.358 148.104 33.77 148.032 34.298H151.338C151.338 34.05 151.304 33.824 151.236 33.62C151.168 33.412 151.068 33.234 150.936 33.086C150.804 32.934 150.642 32.818 150.45 32.738C150.262 32.654 150.046 32.612 149.802 32.612ZM155.193 29.402H156.159C156.263 29.402 156.349 29.428 156.417 29.48C156.485 29.532 156.531 29.598 156.555 29.678L158.331 35.654C158.363 35.762 158.391 35.878 158.415 36.002C158.443 36.126 158.469 36.256 158.493 36.392C158.521 36.256 158.549 36.126 158.577 36.002C158.605 35.874 158.637 35.758 158.673 35.654L160.695 29.678C160.719 29.61 160.765 29.548 160.833 29.492C160.905 29.432 160.991 29.402 161.091 29.402H161.427C161.531 29.402 161.615 29.428 161.679 29.48C161.747 29.532 161.795 29.598 161.823 29.678L163.833 35.654C163.905 35.862 163.969 36.1 164.025 36.368C164.049 36.236 164.071 36.11 164.091 35.99C164.111 35.87 164.137 35.758 164.169 35.654L165.951 29.678C165.971 29.606 166.015 29.542 166.083 29.486C166.155 29.43 166.241 29.402 166.341 29.402H167.247L164.565 38H163.521L161.343 31.442C161.299 31.318 161.259 31.174 161.223 31.01C161.203 31.09 161.183 31.168 161.163 31.244C161.147 31.316 161.129 31.382 161.109 31.442L158.919 38H157.875L155.193 29.402ZM169.396 31.922V38H168.328V31.922H169.396ZM169.636 30.014C169.636 30.118 169.614 30.216 169.57 30.308C169.53 30.396 169.474 30.476 169.402 30.548C169.334 30.616 169.254 30.67 169.162 30.71C169.07 30.75 168.972 30.77 168.868 30.77C168.764 30.77 168.666 30.75 168.574 30.71C168.486 30.67 168.406 30.616 168.334 30.548C168.266 30.476 168.212 30.396 168.172 30.308C168.132 30.216 168.112 30.118 168.112 30.014C168.112 29.91 168.132 29.812 168.172 29.72C168.212 29.624 168.266 29.542 168.334 29.474C168.406 29.402 168.486 29.346 168.574 29.306C168.666 29.266 168.764 29.246 168.868 29.246C168.972 29.246 169.07 29.266 169.162 29.306C169.254 29.346 169.334 29.402 169.402 29.474C169.474 29.542 169.53 29.624 169.57 29.72C169.614 29.812 169.636 29.91 169.636 30.014ZM175.556 38C175.404 38 175.308 37.926 175.268 37.778L175.172 37.04C174.912 37.356 174.614 37.61 174.278 37.802C173.946 37.99 173.564 38.084 173.132 38.084C172.784 38.084 172.468 38.018 172.184 37.886C171.9 37.75 171.658 37.552 171.458 37.292C171.258 37.032 171.104 36.708 170.996 36.32C170.888 35.932 170.834 35.486 170.834 34.982C170.834 34.534 170.894 34.118 171.014 33.734C171.134 33.346 171.306 33.01 171.53 32.726C171.758 32.442 172.034 32.22 172.358 32.06C172.682 31.896 173.05 31.814 173.462 31.814C173.834 31.814 174.152 31.878 174.416 32.006C174.68 32.13 174.916 32.306 175.124 32.534V29.162H176.192V38H175.556ZM173.486 37.22C173.834 37.22 174.138 37.14 174.398 36.98C174.662 36.82 174.904 36.594 175.124 36.302V33.362C174.928 33.098 174.712 32.914 174.476 32.81C174.244 32.702 173.986 32.648 173.702 32.648C173.134 32.648 172.698 32.85 172.394 33.254C172.09 33.658 171.938 34.234 171.938 34.982C171.938 35.378 171.972 35.718 172.04 36.002C172.108 36.282 172.208 36.514 172.34 36.698C172.472 36.878 172.634 37.01 172.826 37.094C173.018 37.178 173.238 37.22 173.486 37.22ZM180.027 31.82C180.291 31.82 180.537 31.85 180.765 31.91C180.997 31.966 181.207 32.05 181.395 32.162H183.045V32.558C183.045 32.69 182.961 32.774 182.793 32.81L182.103 32.906C182.239 33.166 182.307 33.456 182.307 33.776C182.307 34.072 182.249 34.342 182.133 34.586C182.021 34.826 181.863 35.032 181.659 35.204C181.459 35.376 181.219 35.508 180.939 35.6C180.663 35.692 180.359 35.738 180.027 35.738C179.743 35.738 179.475 35.704 179.223 35.636C179.095 35.716 178.997 35.802 178.929 35.894C178.865 35.986 178.833 36.076 178.833 36.164C178.833 36.308 178.891 36.418 179.007 36.494C179.123 36.566 179.277 36.618 179.469 36.65C179.661 36.682 179.879 36.702 180.123 36.71C180.367 36.718 180.615 36.732 180.867 36.752C181.123 36.768 181.373 36.798 181.617 36.842C181.861 36.886 182.079 36.958 182.271 37.058C182.463 37.158 182.617 37.296 182.733 37.472C182.849 37.648 182.907 37.876 182.907 38.156C182.907 38.416 182.841 38.668 182.709 38.912C182.581 39.156 182.395 39.372 182.151 39.56C181.907 39.752 181.609 39.904 181.257 40.016C180.905 40.132 180.507 40.19 180.063 40.19C179.619 40.19 179.229 40.146 178.893 40.058C178.561 39.97 178.285 39.852 178.065 39.704C177.845 39.556 177.679 39.384 177.567 39.188C177.459 38.996 177.405 38.794 177.405 38.582C177.405 38.282 177.499 38.028 177.687 37.82C177.879 37.608 178.141 37.44 178.473 37.316C178.301 37.236 178.163 37.13 178.059 36.998C177.959 36.862 177.909 36.682 177.909 36.458C177.909 36.37 177.925 36.28 177.957 36.188C177.989 36.092 178.037 35.998 178.101 35.906C178.169 35.814 178.251 35.726 178.347 35.642C178.443 35.558 178.555 35.484 178.683 35.42C178.383 35.252 178.147 35.03 177.975 34.754C177.807 34.474 177.723 34.148 177.723 33.776C177.723 33.48 177.779 33.212 177.891 32.972C178.007 32.728 178.167 32.522 178.371 32.354C178.575 32.182 178.817 32.05 179.097 31.958C179.381 31.866 179.691 31.82 180.027 31.82ZM181.923 38.33C181.923 38.178 181.881 38.056 181.797 37.964C181.713 37.872 181.599 37.802 181.455 37.754C181.311 37.702 181.145 37.664 180.957 37.64C180.769 37.616 180.571 37.6 180.363 37.592C180.155 37.58 179.943 37.568 179.727 37.556C179.511 37.544 179.305 37.522 179.109 37.49C178.881 37.598 178.695 37.73 178.551 37.886C178.411 38.042 178.341 38.228 178.341 38.444C178.341 38.58 178.375 38.706 178.443 38.822C178.515 38.942 178.623 39.044 178.767 39.128C178.911 39.216 179.091 39.284 179.307 39.332C179.527 39.384 179.785 39.41 180.081 39.41C180.369 39.41 180.627 39.384 180.855 39.332C181.083 39.28 181.275 39.206 181.431 39.11C181.591 39.014 181.713 38.9 181.797 38.768C181.881 38.636 181.923 38.49 181.923 38.33ZM180.027 35.03C180.243 35.03 180.433 35 180.597 34.94C180.765 34.88 180.905 34.796 181.017 34.688C181.129 34.58 181.213 34.452 181.269 34.304C181.325 34.152 181.353 33.986 181.353 33.806C181.353 33.434 181.239 33.138 181.011 32.918C180.787 32.698 180.459 32.588 180.027 32.588C179.599 32.588 179.271 32.698 179.043 32.918C178.819 33.138 178.707 33.434 178.707 33.806C178.707 33.986 178.735 34.152 178.791 34.304C178.851 34.452 178.937 34.58 179.049 34.688C179.161 34.796 179.299 34.88 179.463 34.94C179.627 35 179.815 35.03 180.027 35.03ZM186.516 31.826C186.88 31.826 187.216 31.888 187.524 32.012C187.832 32.132 188.098 32.308 188.322 32.54C188.546 32.768 188.72 33.052 188.844 33.392C188.972 33.728 189.036 34.112 189.036 34.544C189.036 34.712 189.018 34.824 188.982 34.88C188.946 34.936 188.878 34.964 188.778 34.964H184.734C184.742 35.348 184.794 35.682 184.89 35.966C184.986 36.25 185.118 36.488 185.286 36.68C185.454 36.868 185.654 37.01 185.886 37.106C186.118 37.198 186.378 37.244 186.666 37.244C186.934 37.244 187.164 37.214 187.356 37.154C187.552 37.09 187.72 37.022 187.86 36.95C188 36.878 188.116 36.812 188.208 36.752C188.304 36.688 188.386 36.656 188.454 36.656C188.542 36.656 188.61 36.69 188.658 36.758L188.958 37.148C188.826 37.308 188.668 37.448 188.484 37.568C188.3 37.684 188.102 37.78 187.89 37.856C187.682 37.932 187.466 37.988 187.242 38.024C187.018 38.064 186.796 38.084 186.576 38.084C186.156 38.084 185.768 38.014 185.412 37.874C185.06 37.73 184.754 37.522 184.494 37.25C184.238 36.974 184.038 36.634 183.894 36.23C183.75 35.826 183.678 35.362 183.678 34.838C183.678 34.414 183.742 34.018 183.87 33.65C184.002 33.282 184.19 32.964 184.434 32.696C184.678 32.424 184.976 32.212 185.328 32.06C185.68 31.904 186.076 31.826 186.516 31.826ZM186.54 32.612C186.024 32.612 185.618 32.762 185.322 33.062C185.026 33.358 184.842 33.77 184.77 34.298H188.076C188.076 34.05 188.042 33.824 187.974 33.62C187.906 33.412 187.806 33.234 187.674 33.086C187.542 32.934 187.38 32.818 187.188 32.738C187 32.654 186.784 32.612 186.54 32.612ZM192.245 38.096C191.765 38.096 191.395 37.962 191.135 37.694C190.879 37.426 190.751 37.04 190.751 36.536V32.816H190.019C189.955 32.816 189.901 32.798 189.857 32.762C189.813 32.722 189.791 32.662 189.791 32.582V32.156L190.787 32.03L191.033 30.152C191.041 30.092 191.067 30.044 191.111 30.008C191.155 29.968 191.211 29.948 191.279 29.948H191.819V32.042H193.559V32.816H191.819V36.464C191.819 36.72 191.881 36.91 192.005 37.034C192.129 37.158 192.289 37.22 192.485 37.22C192.597 37.22 192.693 37.206 192.773 37.178C192.857 37.146 192.929 37.112 192.989 37.076C193.049 37.04 193.099 37.008 193.139 36.98C193.183 36.948 193.221 36.932 193.253 36.932C193.309 36.932 193.359 36.966 193.403 37.034L193.715 37.544C193.531 37.716 193.309 37.852 193.049 37.952C192.789 38.048 192.521 38.096 192.245 38.096Z" fill="#3B4C66"/>
<path d="M133.448 64.746C133.412 64.806 133.374 64.852 133.334 64.884C133.294 64.912 133.242 64.926 133.178 64.926C133.11 64.926 133.03 64.892 132.938 64.824C132.85 64.756 132.736 64.682 132.596 64.602C132.46 64.518 132.294 64.442 132.098 64.374C131.906 64.306 131.672 64.272 131.396 64.272C131.136 64.272 130.906 64.308 130.706 64.38C130.506 64.448 130.338 64.542 130.202 64.662C130.07 64.782 129.97 64.924 129.902 65.088C129.834 65.248 129.8 65.422 129.8 65.61C129.8 65.85 129.858 66.05 129.974 66.21C130.094 66.366 130.25 66.5 130.442 66.612C130.638 66.724 130.858 66.822 131.102 66.906C131.35 66.986 131.602 67.07 131.858 67.158C132.118 67.246 132.37 67.346 132.614 67.458C132.862 67.566 133.082 67.704 133.274 67.872C133.47 68.04 133.626 68.246 133.742 68.49C133.862 68.734 133.922 69.034 133.922 69.39C133.922 69.766 133.858 70.12 133.73 70.452C133.602 70.78 133.414 71.066 133.166 71.31C132.922 71.554 132.62 71.746 132.26 71.886C131.904 72.026 131.498 72.096 131.042 72.096C130.486 72.096 129.978 71.996 129.518 71.796C129.062 71.592 128.672 71.318 128.348 70.974L128.684 70.422C128.716 70.378 128.754 70.342 128.798 70.314C128.846 70.282 128.898 70.266 128.954 70.266C129.038 70.266 129.134 70.312 129.242 70.404C129.35 70.492 129.484 70.59 129.644 70.698C129.808 70.806 130.004 70.906 130.232 70.998C130.464 71.086 130.746 71.13 131.078 71.13C131.354 71.13 131.6 71.092 131.816 71.016C132.032 70.94 132.214 70.834 132.362 70.698C132.514 70.558 132.63 70.392 132.71 70.2C132.79 70.008 132.83 69.794 132.83 69.558C132.83 69.298 132.77 69.086 132.65 68.922C132.534 68.754 132.38 68.614 132.188 68.502C131.996 68.39 131.776 68.296 131.528 68.22C131.284 68.14 131.032 68.06 130.772 67.98C130.516 67.896 130.264 67.8 130.016 67.692C129.772 67.584 129.554 67.444 129.362 67.272C129.17 67.1 129.014 66.886 128.894 66.63C128.778 66.37 128.72 66.05 128.72 65.67C128.72 65.366 128.778 65.072 128.894 64.788C129.014 64.504 129.186 64.252 129.41 64.032C129.634 63.812 129.91 63.636 130.238 63.504C130.57 63.372 130.95 63.306 131.378 63.306C131.858 63.306 132.296 63.382 132.692 63.534C133.088 63.686 133.434 63.906 133.73 64.194L133.448 64.746ZM136.427 65.922V72H135.359V65.922H136.427ZM136.667 64.014C136.667 64.118 136.645 64.216 136.601 64.308C136.561 64.396 136.505 64.476 136.433 64.548C136.365 64.616 136.285 64.67 136.193 64.71C136.101 64.75 136.003 64.77 135.899 64.77C135.795 64.77 135.697 64.75 135.605 64.71C135.517 64.67 135.437 64.616 135.365 64.548C135.297 64.476 135.243 64.396 135.203 64.308C135.163 64.216 135.143 64.118 135.143 64.014C135.143 63.91 135.163 63.812 135.203 63.72C135.243 63.624 135.297 63.542 135.365 63.474C135.437 63.402 135.517 63.346 135.605 63.306C135.697 63.266 135.795 63.246 135.899 63.246C136.003 63.246 136.101 63.266 136.193 63.306C136.285 63.346 136.365 63.402 136.433 63.474C136.505 63.542 136.561 63.624 136.601 63.72C136.645 63.812 136.667 63.91 136.667 64.014ZM142.588 72C142.436 72 142.34 71.926 142.3 71.778L142.204 71.04C141.944 71.356 141.646 71.61 141.31 71.802C140.978 71.99 140.596 72.084 140.164 72.084C139.816 72.084 139.5 72.018 139.216 71.886C138.932 71.75 138.69 71.552 138.49 71.292C138.29 71.032 138.136 70.708 138.028 70.32C137.92 69.932 137.866 69.486 137.866 68.982C137.866 68.534 137.926 68.118 138.046 67.734C138.166 67.346 138.338 67.01 138.562 66.726C138.79 66.442 139.066 66.22 139.39 66.06C139.714 65.896 140.082 65.814 140.494 65.814C140.866 65.814 141.184 65.878 141.448 66.006C141.712 66.13 141.948 66.306 142.156 66.534V63.162H143.224V72H142.588ZM140.518 71.22C140.866 71.22 141.17 71.14 141.43 70.98C141.694 70.82 141.936 70.594 142.156 70.302V67.362C141.96 67.098 141.744 66.914 141.508 66.81C141.276 66.702 141.018 66.648 140.734 66.648C140.166 66.648 139.73 66.85 139.426 67.254C139.122 67.658 138.97 68.234 138.97 68.982C138.97 69.378 139.004 69.718 139.072 70.002C139.14 70.282 139.24 70.514 139.372 70.698C139.504 70.878 139.666 71.01 139.858 71.094C140.05 71.178 140.27 71.22 140.518 71.22ZM147.419 65.826C147.783 65.826 148.119 65.888 148.427 66.012C148.735 66.132 149.001 66.308 149.225 66.54C149.449 66.768 149.623 67.052 149.747 67.392C149.875 67.728 149.939 68.112 149.939 68.544C149.939 68.712 149.921 68.824 149.885 68.88C149.849 68.936 149.781 68.964 149.681 68.964H145.637C145.645 69.348 145.697 69.682 145.793 69.966C145.889 70.25 146.021 70.488 146.189 70.68C146.357 70.868 146.557 71.01 146.789 71.106C147.021 71.198 147.281 71.244 147.569 71.244C147.837 71.244 148.067 71.214 148.259 71.154C148.455 71.09 148.623 71.022 148.763 70.95C148.903 70.878 149.019 70.812 149.111 70.752C149.207 70.688 149.289 70.656 149.357 70.656C149.445 70.656 149.513 70.69 149.561 70.758L149.861 71.148C149.729 71.308 149.571 71.448 149.387 71.568C149.203 71.684 149.005 71.78 148.793 71.856C148.585 71.932 148.369 71.988 148.145 72.024C147.921 72.064 147.699 72.084 147.479 72.084C147.059 72.084 146.671 72.014 146.315 71.874C145.963 71.73 145.657 71.522 145.397 71.25C145.141 70.974 144.941 70.634 144.797 70.23C144.653 69.826 144.581 69.362 144.581 68.838C144.581 68.414 144.645 68.018 144.773 67.65C144.905 67.282 145.093 66.964 145.337 66.696C145.581 66.424 145.879 66.212 146.231 66.06C146.583 65.904 146.979 65.826 147.419 65.826ZM147.443 66.612C146.927 66.612 146.521 66.762 146.225 67.062C145.929 67.358 145.745 67.77 145.673 68.298H148.979C148.979 68.05 148.945 67.824 148.877 67.62C148.809 67.412 148.709 67.234 148.577 67.086C148.445 66.934 148.283 66.818 148.091 66.738C147.903 66.654 147.687 66.612 147.443 66.612ZM151.342 72V63.162H152.416V66.798C152.668 66.506 152.956 66.272 153.28 66.096C153.608 65.916 153.982 65.826 154.402 65.826C154.754 65.826 155.072 65.892 155.356 66.024C155.64 66.156 155.882 66.354 156.082 66.618C156.282 66.878 156.436 67.202 156.544 67.59C156.652 67.974 156.706 68.418 156.706 68.922C156.706 69.37 156.646 69.788 156.526 70.176C156.406 70.56 156.232 70.894 156.004 71.178C155.78 71.458 155.504 71.68 155.176 71.844C154.852 72.004 154.486 72.084 154.078 72.084C153.686 72.084 153.352 72.008 153.076 71.856C152.804 71.704 152.566 71.492 152.362 71.22L152.308 71.772C152.276 71.924 152.184 72 152.032 72H151.342ZM154.054 66.678C153.706 66.678 153.4 66.758 153.136 66.918C152.876 67.078 152.636 67.304 152.416 67.596V70.536C152.608 70.8 152.82 70.986 153.052 71.094C153.288 71.202 153.55 71.256 153.838 71.256C154.406 71.256 154.842 71.054 155.146 70.65C155.45 70.246 155.602 69.67 155.602 68.922C155.602 68.526 155.566 68.186 155.494 67.902C155.426 67.618 155.326 67.386 155.194 67.206C155.062 67.022 154.9 66.888 154.708 66.804C154.516 66.72 154.298 66.678 154.054 66.678ZM162.473 72H161.999C161.895 72 161.811 71.984 161.747 71.952C161.683 71.92 161.641 71.852 161.621 71.748L161.501 71.184C161.341 71.328 161.185 71.458 161.033 71.574C160.881 71.686 160.721 71.782 160.553 71.862C160.385 71.938 160.205 71.996 160.013 72.036C159.825 72.076 159.615 72.096 159.383 72.096C159.147 72.096 158.925 72.064 158.717 72C158.513 71.932 158.335 71.832 158.183 71.7C158.031 71.568 157.909 71.402 157.817 71.202C157.729 70.998 157.685 70.758 157.685 70.482C157.685 70.242 157.751 70.012 157.883 69.792C158.015 69.568 158.227 69.37 158.519 69.198C158.815 69.026 159.201 68.886 159.677 68.778C160.153 68.666 160.735 68.602 161.423 68.586V68.112C161.423 67.64 161.321 67.284 161.117 67.044C160.917 66.8 160.619 66.678 160.223 66.678C159.963 66.678 159.743 66.712 159.563 66.78C159.387 66.844 159.233 66.918 159.101 67.002C158.973 67.082 158.861 67.156 158.765 67.224C158.673 67.288 158.581 67.32 158.489 67.32C158.417 67.32 158.353 67.302 158.297 67.266C158.245 67.226 158.203 67.178 158.171 67.122L157.979 66.78C158.315 66.456 158.677 66.214 159.065 66.054C159.453 65.894 159.883 65.814 160.355 65.814C160.695 65.814 160.997 65.87 161.261 65.982C161.525 66.094 161.747 66.25 161.927 66.45C162.107 66.65 162.243 66.892 162.335 67.176C162.427 67.46 162.473 67.772 162.473 68.112V72ZM159.701 71.346C159.889 71.346 160.061 71.328 160.217 71.292C160.373 71.252 160.519 71.198 160.655 71.13C160.795 71.058 160.927 70.972 161.051 70.872C161.179 70.772 161.303 70.658 161.423 70.53V69.264C160.931 69.28 160.513 69.32 160.169 69.384C159.825 69.444 159.545 69.524 159.329 69.624C159.113 69.724 158.955 69.842 158.855 69.978C158.759 70.114 158.711 70.266 158.711 70.434C158.711 70.594 158.737 70.732 158.789 70.848C158.841 70.964 158.911 71.06 158.999 71.136C159.087 71.208 159.191 71.262 159.311 71.298C159.431 71.33 159.561 71.346 159.701 71.346ZM164.091 72V65.922H164.703C164.819 65.922 164.899 65.944 164.943 65.988C164.987 66.032 165.017 66.108 165.033 66.216L165.105 67.164C165.313 66.74 165.569 66.41 165.873 66.174C166.181 65.934 166.541 65.814 166.953 65.814C167.121 65.814 167.273 65.834 167.409 65.874C167.545 65.91 167.671 65.962 167.787 66.03L167.649 66.828C167.621 66.928 167.559 66.978 167.463 66.978C167.407 66.978 167.321 66.96 167.205 66.924C167.089 66.884 166.927 66.864 166.719 66.864C166.347 66.864 166.035 66.972 165.783 67.188C165.535 67.404 165.327 67.718 165.159 68.13V72H164.091Z" fill="#8495B1"/>
<path d="M134.342 87.402V88.35H130.214V91.356H133.742V92.304H130.214V96H129.044V87.402H134.342ZM137.711 89.826C138.155 89.826 138.555 89.9 138.911 90.048C139.271 90.196 139.575 90.406 139.823 90.678C140.075 90.95 140.267 91.28 140.399 91.668C140.535 92.052 140.603 92.482 140.603 92.958C140.603 93.438 140.535 93.87 140.399 94.254C140.267 94.638 140.075 94.966 139.823 95.238C139.575 95.51 139.271 95.72 138.911 95.868C138.555 96.012 138.155 96.084 137.711 96.084C137.267 96.084 136.865 96.012 136.505 95.868C136.149 95.72 135.845 95.51 135.593 95.238C135.341 94.966 135.147 94.638 135.011 94.254C134.875 93.87 134.807 93.438 134.807 92.958C134.807 92.482 134.875 92.052 135.011 91.668C135.147 91.28 135.341 90.95 135.593 90.678C135.845 90.406 136.149 90.196 136.505 90.048C136.865 89.9 137.267 89.826 137.711 89.826ZM137.711 95.25C138.311 95.25 138.759 95.05 139.055 94.65C139.351 94.246 139.499 93.684 139.499 92.964C139.499 92.24 139.351 91.676 139.055 91.272C138.759 90.868 138.311 90.666 137.711 90.666C137.407 90.666 137.143 90.718 136.919 90.822C136.695 90.926 136.507 91.076 136.355 91.272C136.207 91.468 136.095 91.71 136.019 91.998C135.947 92.282 135.911 92.604 135.911 92.964C135.911 93.324 135.947 93.646 136.019 93.93C136.095 94.214 136.207 94.454 136.355 94.65C136.507 94.842 136.695 94.99 136.919 95.094C137.143 95.198 137.407 95.25 137.711 95.25ZM144.379 89.826C144.823 89.826 145.223 89.9 145.579 90.048C145.939 90.196 146.243 90.406 146.491 90.678C146.743 90.95 146.935 91.28 147.067 91.668C147.203 92.052 147.271 92.482 147.271 92.958C147.271 93.438 147.203 93.87 147.067 94.254C146.935 94.638 146.743 94.966 146.491 95.238C146.243 95.51 145.939 95.72 145.579 95.868C145.223 96.012 144.823 96.084 144.379 96.084C143.935 96.084 143.533 96.012 143.173 95.868C142.817 95.72 142.513 95.51 142.261 95.238C142.009 94.966 141.815 94.638 141.679 94.254C141.543 93.87 141.475 93.438 141.475 92.958C141.475 92.482 141.543 92.052 141.679 91.668C141.815 91.28 142.009 90.95 142.261 90.678C142.513 90.406 142.817 90.196 143.173 90.048C143.533 89.9 143.935 89.826 144.379 89.826ZM144.379 95.25C144.979 95.25 145.427 95.05 145.723 94.65C146.019 94.246 146.167 93.684 146.167 92.964C146.167 92.24 146.019 91.676 145.723 91.272C145.427 90.868 144.979 90.666 144.379 90.666C144.075 90.666 143.811 90.718 143.587 90.822C143.363 90.926 143.175 91.076 143.023 91.272C142.875 91.468 142.763 91.71 142.687 91.998C142.615 92.282 142.579 92.604 142.579 92.964C142.579 93.324 142.615 93.646 142.687 93.93C142.763 94.214 142.875 94.454 143.023 94.65C143.175 94.842 143.363 94.99 143.587 95.094C143.811 95.198 144.075 95.25 144.379 95.25ZM150.429 96.096C149.949 96.096 149.579 95.962 149.319 95.694C149.063 95.426 148.935 95.04 148.935 94.536V90.816H148.203C148.139 90.816 148.085 90.798 148.041 90.762C147.997 90.722 147.975 90.662 147.975 90.582V90.156L148.971 90.03L149.217 88.152C149.225 88.092 149.251 88.044 149.295 88.008C149.339 87.968 149.395 87.948 149.463 87.948H150.003V90.042H151.743V90.816H150.003V94.464C150.003 94.72 150.065 94.91 150.189 95.034C150.313 95.158 150.473 95.22 150.669 95.22C150.781 95.22 150.877 95.206 150.957 95.178C151.041 95.146 151.113 95.112 151.173 95.076C151.233 95.04 151.283 95.008 151.323 94.98C151.367 94.948 151.405 94.932 151.437 94.932C151.493 94.932 151.543 94.966 151.587 95.034L151.899 95.544C151.715 95.716 151.493 95.852 151.233 95.952C150.973 96.048 150.705 96.096 150.429 96.096ZM155.47 89.826C155.834 89.826 156.17 89.888 156.478 90.012C156.786 90.132 157.052 90.308 157.276 90.54C157.5 90.768 157.674 91.052 157.798 91.392C157.926 91.728 157.99 92.112 157.99 92.544C157.99 92.712 157.972 92.824 157.936 92.88C157.9 92.936 157.832 92.964 157.732 92.964H153.688C153.696 93.348 153.748 93.682 153.844 93.966C153.94 94.25 154.072 94.488 154.24 94.68C154.408 94.868 154.608 95.01 154.84 95.106C155.072 95.198 155.332 95.244 155.62 95.244C155.888 95.244 156.118 95.214 156.31 95.154C156.506 95.09 156.674 95.022 156.814 94.95C156.954 94.878 157.07 94.812 157.162 94.752C157.258 94.688 157.34 94.656 157.408 94.656C157.496 94.656 157.564 94.69 157.612 94.758L157.912 95.148C157.78 95.308 157.622 95.448 157.438 95.568C157.254 95.684 157.056 95.78 156.844 95.856C156.636 95.932 156.42 95.988 156.196 96.024C155.972 96.064 155.75 96.084 155.53 96.084C155.11 96.084 154.722 96.014 154.366 95.874C154.014 95.73 153.708 95.522 153.448 95.25C153.192 94.974 152.992 94.634 152.848 94.23C152.704 93.826 152.632 93.362 152.632 92.838C152.632 92.414 152.696 92.018 152.824 91.65C152.956 91.282 153.144 90.964 153.388 90.696C153.632 90.424 153.93 90.212 154.282 90.06C154.634 89.904 155.03 89.826 155.47 89.826ZM155.493 90.612C154.978 90.612 154.572 90.762 154.276 91.062C153.98 91.358 153.796 91.77 153.724 92.298H157.03C157.03 92.05 156.996 91.824 156.928 91.62C156.86 91.412 156.76 91.234 156.628 91.086C156.496 90.934 156.334 90.818 156.142 90.738C155.954 90.654 155.738 90.612 155.493 90.612ZM159.356 96V89.922H159.968C160.084 89.922 160.164 89.944 160.208 89.988C160.252 90.032 160.282 90.108 160.298 90.216L160.37 91.164C160.578 90.74 160.834 90.41 161.138 90.174C161.446 89.934 161.806 89.814 162.218 89.814C162.386 89.814 162.538 89.834 162.674 89.874C162.81 89.91 162.936 89.962 163.052 90.03L162.914 90.828C162.886 90.928 162.824 90.978 162.728 90.978C162.672 90.978 162.586 90.96 162.47 90.924C162.354 90.884 162.192 90.864 161.984 90.864C161.612 90.864 161.3 90.972 161.048 91.188C160.8 91.404 160.592 91.718 160.424 92.13V96H159.356Z" fill="#3B4C66"/>
<circle cx="114" cy="68" r="6" fill="#C0CCE0"/>
<circle cx="114" cy="92" r="6" fill="#C0CCE0"/>
<circle cx="114" cy="92" r="3" fill="white"/>
<g filter="url(#filter1_dd)">
<path d="M108 114C108 111.791 109.791 110 112 110H199C201.209 110 203 111.791 203 114V130C203 132.209 201.209 134 199 134H112C109.791 134 108 132.209 108 130V114Z" fill="#6285FF"/>
<path d="M132.229 126H131.329C131.225 126 131.141 125.974 131.077 125.922C131.013 125.87 130.965 125.804 130.933 125.724L130.129 123.648H126.271L125.467 125.724C125.439 125.796 125.391 125.86 125.323 125.916C125.255 125.972 125.171 126 125.071 126H124.171L127.609 117.402H128.791L132.229 126ZM126.595 122.808H129.805L128.455 119.31C128.367 119.094 128.281 118.824 128.197 118.5C128.153 118.664 128.109 118.816 128.065 118.956C128.025 119.092 127.985 119.212 127.945 119.316L126.595 122.808ZM137.422 126C137.27 126 137.174 125.926 137.134 125.778L137.038 125.04C136.778 125.356 136.48 125.61 136.144 125.802C135.812 125.99 135.43 126.084 134.998 126.084C134.65 126.084 134.334 126.018 134.05 125.886C133.766 125.75 133.524 125.552 133.324 125.292C133.124 125.032 132.97 124.708 132.862 124.32C132.754 123.932 132.7 123.486 132.7 122.982C132.7 122.534 132.76 122.118 132.88 121.734C133 121.346 133.172 121.01 133.396 120.726C133.624 120.442 133.9 120.22 134.224 120.06C134.548 119.896 134.916 119.814 135.328 119.814C135.7 119.814 136.018 119.878 136.282 120.006C136.546 120.13 136.782 120.306 136.99 120.534V117.162H138.058V126H137.422ZM135.352 125.22C135.7 125.22 136.004 125.14 136.264 124.98C136.528 124.82 136.77 124.594 136.99 124.302V121.362C136.794 121.098 136.578 120.914 136.342 120.81C136.11 120.702 135.852 120.648 135.568 120.648C135 120.648 134.564 120.85 134.26 121.254C133.956 121.658 133.804 122.234 133.804 122.982C133.804 123.378 133.838 123.718 133.906 124.002C133.974 124.282 134.074 124.514 134.206 124.698C134.338 124.878 134.5 125.01 134.692 125.094C134.884 125.178 135.104 125.22 135.352 125.22ZM144.125 126C143.973 126 143.877 125.926 143.837 125.778L143.741 125.04C143.481 125.356 143.183 125.61 142.847 125.802C142.515 125.99 142.133 126.084 141.701 126.084C141.353 126.084 141.037 126.018 140.753 125.886C140.469 125.75 140.227 125.552 140.027 125.292C139.827 125.032 139.673 124.708 139.565 124.32C139.457 123.932 139.403 123.486 139.403 122.982C139.403 122.534 139.463 122.118 139.583 121.734C139.703 121.346 139.875 121.01 140.099 120.726C140.327 120.442 140.603 120.22 140.927 120.06C141.251 119.896 141.619 119.814 142.031 119.814C142.403 119.814 142.721 119.878 142.985 120.006C143.249 120.13 143.485 120.306 143.693 120.534V117.162H144.761V126H144.125ZM142.055 125.22C142.403 125.22 142.707 125.14 142.967 124.98C143.231 124.82 143.473 124.594 143.693 124.302V121.362C143.497 121.098 143.281 120.914 143.045 120.81C142.813 120.702 142.555 120.648 142.271 120.648C141.703 120.648 141.267 120.85 140.963 121.254C140.659 121.658 140.507 122.234 140.507 122.982C140.507 123.378 140.541 123.718 140.609 124.002C140.677 124.282 140.777 124.514 140.909 124.698C141.041 124.878 141.203 125.01 141.395 125.094C141.587 125.178 141.807 125.22 142.055 125.22ZM148.078 117.402H149.044C149.148 117.402 149.234 117.428 149.302 117.48C149.37 117.532 149.416 117.598 149.44 117.678L151.216 123.654C151.248 123.762 151.276 123.878 151.3 124.002C151.328 124.126 151.354 124.256 151.378 124.392C151.406 124.256 151.434 124.126 151.462 124.002C151.49 123.874 151.522 123.758 151.558 123.654L153.58 117.678C153.604 117.61 153.65 117.548 153.718 117.492C153.79 117.432 153.876 117.402 153.976 117.402H154.312C154.416 117.402 154.5 117.428 154.564 117.48C154.632 117.532 154.68 117.598 154.708 117.678L156.718 123.654C156.79 123.862 156.854 124.1 156.91 124.368C156.934 124.236 156.956 124.11 156.976 123.99C156.996 123.87 157.022 123.758 157.054 123.654L158.836 117.678C158.856 117.606 158.9 117.542 158.968 117.486C159.04 117.43 159.126 117.402 159.226 117.402H160.132L157.45 126H156.406L154.228 119.442C154.184 119.318 154.144 119.174 154.108 119.01C154.088 119.09 154.068 119.168 154.048 119.244C154.032 119.316 154.014 119.382 153.994 119.442L151.804 126H150.76L148.078 117.402ZM162.281 119.922V126H161.213V119.922H162.281ZM162.521 118.014C162.521 118.118 162.499 118.216 162.455 118.308C162.415 118.396 162.359 118.476 162.287 118.548C162.219 118.616 162.139 118.67 162.047 118.71C161.955 118.75 161.857 118.77 161.753 118.77C161.649 118.77 161.551 118.75 161.459 118.71C161.371 118.67 161.291 118.616 161.219 118.548C161.151 118.476 161.097 118.396 161.057 118.308C161.017 118.216 160.997 118.118 160.997 118.014C160.997 117.91 161.017 117.812 161.057 117.72C161.097 117.624 161.151 117.542 161.219 117.474C161.291 117.402 161.371 117.346 161.459 117.306C161.551 117.266 161.649 117.246 161.753 117.246C161.857 117.246 161.955 117.266 162.047 117.306C162.139 117.346 162.219 117.402 162.287 117.474C162.359 117.542 162.415 117.624 162.455 117.72C162.499 117.812 162.521 117.91 162.521 118.014ZM168.441 126C168.289 126 168.193 125.926 168.153 125.778L168.057 125.04C167.797 125.356 167.499 125.61 167.163 125.802C166.831 125.99 166.449 126.084 166.017 126.084C165.669 126.084 165.353 126.018 165.069 125.886C164.785 125.75 164.543 125.552 164.343 125.292C164.143 125.032 163.989 124.708 163.881 124.32C163.773 123.932 163.719 123.486 163.719 122.982C163.719 122.534 163.779 122.118 163.899 121.734C164.019 121.346 164.191 121.01 164.415 120.726C164.643 120.442 164.919 120.22 165.243 120.06C165.567 119.896 165.935 119.814 166.347 119.814C166.719 119.814 167.037 119.878 167.301 120.006C167.565 120.13 167.801 120.306 168.009 120.534V117.162H169.077V126H168.441ZM166.371 125.22C166.719 125.22 167.023 125.14 167.283 124.98C167.547 124.82 167.789 124.594 168.009 124.302V121.362C167.813 121.098 167.597 120.914 167.361 120.81C167.129 120.702 166.871 120.648 166.587 120.648C166.019 120.648 165.583 120.85 165.279 121.254C164.975 121.658 164.823 122.234 164.823 122.982C164.823 123.378 164.857 123.718 164.925 124.002C164.993 124.282 165.093 124.514 165.225 124.698C165.357 124.878 165.519 125.01 165.711 125.094C165.903 125.178 166.123 125.22 166.371 125.22ZM172.912 119.82C173.176 119.82 173.422 119.85 173.65 119.91C173.882 119.966 174.092 120.05 174.28 120.162H175.93V120.558C175.93 120.69 175.846 120.774 175.678 120.81L174.988 120.906C175.124 121.166 175.192 121.456 175.192 121.776C175.192 122.072 175.134 122.342 175.018 122.586C174.906 122.826 174.748 123.032 174.544 123.204C174.344 123.376 174.104 123.508 173.824 123.6C173.548 123.692 173.244 123.738 172.912 123.738C172.628 123.738 172.36 123.704 172.108 123.636C171.98 123.716 171.882 123.802 171.814 123.894C171.75 123.986 171.718 124.076 171.718 124.164C171.718 124.308 171.776 124.418 171.892 124.494C172.008 124.566 172.162 124.618 172.354 124.65C172.546 124.682 172.764 124.702 173.008 124.71C173.252 124.718 173.5 124.732 173.752 124.752C174.008 124.768 174.258 124.798 174.502 124.842C174.746 124.886 174.964 124.958 175.156 125.058C175.348 125.158 175.502 125.296 175.618 125.472C175.734 125.648 175.792 125.876 175.792 126.156C175.792 126.416 175.726 126.668 175.594 126.912C175.466 127.156 175.28 127.372 175.036 127.56C174.792 127.752 174.494 127.904 174.142 128.016C173.79 128.132 173.392 128.19 172.948 128.19C172.504 128.19 172.114 128.146 171.778 128.058C171.446 127.97 171.17 127.852 170.95 127.704C170.73 127.556 170.564 127.384 170.452 127.188C170.344 126.996 170.29 126.794 170.29 126.582C170.29 126.282 170.384 126.028 170.572 125.82C170.764 125.608 171.026 125.44 171.358 125.316C171.186 125.236 171.048 125.13 170.944 124.998C170.844 124.862 170.794 124.682 170.794 124.458C170.794 124.37 170.81 124.28 170.842 124.188C170.874 124.092 170.922 123.998 170.986 123.906C171.054 123.814 171.136 123.726 171.232 123.642C171.328 123.558 171.44 123.484 171.568 123.42C171.268 123.252 171.032 123.03 170.86 122.754C170.692 122.474 170.608 122.148 170.608 121.776C170.608 121.48 170.664 121.212 170.776 120.972C170.892 120.728 171.052 120.522 171.256 120.354C171.46 120.182 171.702 120.05 171.982 119.958C172.266 119.866 172.576 119.82 172.912 119.82ZM174.808 126.33C174.808 126.178 174.766 126.056 174.682 125.964C174.598 125.872 174.484 125.802 174.34 125.754C174.196 125.702 174.03 125.664 173.842 125.64C173.654 125.616 173.456 125.6 173.248 125.592C173.04 125.58 172.828 125.568 172.612 125.556C172.396 125.544 172.19 125.522 171.994 125.49C171.766 125.598 171.58 125.73 171.436 125.886C171.296 126.042 171.226 126.228 171.226 126.444C171.226 126.58 171.26 126.706 171.328 126.822C171.4 126.942 171.508 127.044 171.652 127.128C171.796 127.216 171.976 127.284 172.192 127.332C172.412 127.384 172.67 127.41 172.966 127.41C173.254 127.41 173.512 127.384 173.74 127.332C173.968 127.28 174.16 127.206 174.316 127.11C174.476 127.014 174.598 126.9 174.682 126.768C174.766 126.636 174.808 126.49 174.808 126.33ZM172.912 123.03C173.128 123.03 173.318 123 173.482 122.94C173.65 122.88 173.79 122.796 173.902 122.688C174.014 122.58 174.098 122.452 174.154 122.304C174.21 122.152 174.238 121.986 174.238 121.806C174.238 121.434 174.124 121.138 173.896 120.918C173.672 120.698 173.344 120.588 172.912 120.588C172.484 120.588 172.156 120.698 171.928 120.918C171.704 121.138 171.592 121.434 171.592 121.806C171.592 121.986 171.62 122.152 171.676 122.304C171.736 122.452 171.822 122.58 171.934 122.688C172.046 122.796 172.184 122.88 172.348 122.94C172.512 123 172.7 123.03 172.912 123.03ZM179.401 119.826C179.765 119.826 180.101 119.888 180.409 120.012C180.717 120.132 180.983 120.308 181.207 120.54C181.431 120.768 181.605 121.052 181.729 121.392C181.857 121.728 181.921 122.112 181.921 122.544C181.921 122.712 181.903 122.824 181.867 122.88C181.831 122.936 181.763 122.964 181.663 122.964H177.619C177.627 123.348 177.679 123.682 177.775 123.966C177.871 124.25 178.003 124.488 178.171 124.68C178.339 124.868 178.539 125.01 178.771 125.106C179.003 125.198 179.263 125.244 179.551 125.244C179.819 125.244 180.049 125.214 180.241 125.154C180.437 125.09 180.605 125.022 180.745 124.95C180.885 124.878 181.001 124.812 181.093 124.752C181.189 124.688 181.271 124.656 181.339 124.656C181.427 124.656 181.495 124.69 181.543 124.758L181.843 125.148C181.711 125.308 181.553 125.448 181.369 125.568C181.185 125.684 180.987 125.78 180.775 125.856C180.567 125.932 180.351 125.988 180.127 126.024C179.903 126.064 179.681 126.084 179.461 126.084C179.041 126.084 178.653 126.014 178.297 125.874C177.945 125.73 177.639 125.522 177.379 125.25C177.123 124.974 176.923 124.634 176.779 124.23C176.635 123.826 176.563 123.362 176.563 122.838C176.563 122.414 176.627 122.018 176.755 121.65C176.887 121.282 177.075 120.964 177.319 120.696C177.563 120.424 177.861 120.212 178.213 120.06C178.565 119.904 178.961 119.826 179.401 119.826ZM179.425 120.612C178.909 120.612 178.503 120.762 178.207 121.062C177.911 121.358 177.727 121.77 177.655 122.298H180.961C180.961 122.05 180.927 121.824 180.859 121.62C180.791 121.412 180.691 121.234 180.559 121.086C180.427 120.934 180.265 120.818 180.073 120.738C179.885 120.654 179.669 120.612 179.425 120.612ZM185.13 126.096C184.65 126.096 184.28 125.962 184.02 125.694C183.764 125.426 183.636 125.04 183.636 124.536V120.816H182.904C182.84 120.816 182.786 120.798 182.742 120.762C182.698 120.722 182.676 120.662 182.676 120.582V120.156L183.672 120.03L183.918 118.152C183.926 118.092 183.952 118.044 183.996 118.008C184.04 117.968 184.096 117.948 184.164 117.948H184.704V120.042H186.444V120.816H184.704V124.464C184.704 124.72 184.766 124.91 184.89 125.034C185.014 125.158 185.174 125.22 185.37 125.22C185.482 125.22 185.578 125.206 185.658 125.178C185.742 125.146 185.814 125.112 185.874 125.076C185.934 125.04 185.984 125.008 186.024 124.98C186.068 124.948 186.106 124.932 186.138 124.932C186.194 124.932 186.244 124.966 186.288 125.034L186.6 125.544C186.416 125.716 186.194 125.852 185.934 125.952C185.674 126.048 185.406 126.096 185.13 126.096Z" fill="white"/>
</g>
<path fill-rule="evenodd" clip-rule="evenodd" d="M188.497 120.59V130.206H186.869V128.624H183.587V130.205H182V133.38H183.666V134.959H185.292V138.176H186.901V139.794H188.5V141.356H190.13V144.564H199.864V143.016H201.507V144.581H204.718V139.801H206.335V136.583H208.019V128.607H206.304V127.032H203.079V125.431H194.995V120.607H193.354V119H190.105V120.589L188.497 120.59Z" fill="black"/>
<path fill-rule="evenodd" clip-rule="evenodd" d="M193.375 120.578V130.169H194.981V126.967H199.88V130.178H201.489V127.004H203.085V130.174H204.72V128.577H206.345V136.579H204.701V139.806H203.11V133.412H201.476V139.781H203.084V143.018H201.499V141.404H199.873V143.007H191.739V141.399H190.119V139.793H188.502V138.22H186.881V135.01H185.231V133.385H183.621V130.187H186.866V131.754H188.532V134.945H190.115L190.126 120.578H193.375ZM199.841 133.396H198.218V139.796H199.841V133.396ZM196.595 133.396H194.972V139.796H196.595V133.396Z" fill="white"/>
</g>
<defs>
<filter id="filter0_d" x="88" y="16" width="136" height="40" filterUnits="userSpaceOnUse" color-interpolation-filters="sRGB">
<feFlood flood-opacity="0" result="BackgroundImageFix"/>
<feColorMatrix in="SourceAlpha" type="matrix" values="0 0 0 0 0 0 0 0 0 0 0 0 0 0 0 0 0 0 127 0"/>
<feOffset dy="2"/>
<feGaussianBlur stdDeviation="2"/>
<feColorMatrix type="matrix" values="0 0 0 0 0.0862745 0 0 0 0 0.176471 0 0 0 0 0.239216 0 0 0 0.2 0"/>
<feBlend mode="normal" in2="BackgroundImageFix" result="effect1_dropShadow"/>
<feBlend mode="normal" in="SourceGraphic" in2="effect1_dropShadow" result="shape"/>
</filter>
<filter id="filter1_dd" x="76" y="92" width="159" height="88" filterUnits="userSpaceOnUse" color-interpolation-filters="sRGB">
<feFlood flood-opacity="0" result="BackgroundImageFix"/>
<feColorMatrix in="SourceAlpha" type="matrix" values="0 0 0 0 0 0 0 0 0 0 0 0 0 0 0 0 0 0 127 0"/>
<feOffset dy="14"/>
<feGaussianBlur stdDeviation="16"/>
<feColorMatrix type="matrix" values="0 0 0 0 0.0862745 0 0 0 0 0.176471 0 0 0 0 0.239216 0 0 0 0.08 0"/>
<feBlend mode="normal" in2="BackgroundImageFix" result="effect1_dropShadow"/>
<feColorMatrix in="SourceAlpha" type="matrix" values="0 0 0 0 0 0 0 0 0 0 0 0 0 0 0 0 0 0 127 0"/>
<feOffset dy="1"/>
<feGaussianBlur stdDeviation="2"/>
<feColorMatrix type="matrix" values="0 0 0 0 0.0862745 0 0 0 0 0.176471 0 0 0 0 0.239216 0 0 0 0.1 0"/>
<feBlend mode="normal" in2="effect1_dropShadow" result="effect2_dropShadow"/>
<feBlend mode="normal" in="SourceGraphic" in2="effect2_dropShadow" result="shape"/>
</filter>
<clipPath id="clip0">
<rect width="312" height="160" fill="white"/>
</clipPath>
</defs>
</svg>
